<?xml version="1.0" encoding="utf-8"?>
<svg xmlns="http://www.w3.org/2000/svg" viewBox="312.7457 163.1272 181.32 220.945" width="181.32px" height="220.945px"><path id="path-1" style="fill:#37c871;fill-opacity:1;stroke:#ffffff;stroke-opacity:1" d="M 427.368 383.917 L 430.172 392.238 L 433.043 394.534 L 433.426 397.786 L 431.129 399.7 L 430.938 402.187 L 427.303 406.206 L 416.971 401.614 L 418.12 404.866 L 417.438 408.132 L 417.292 410.325 L 417.803 411.788 L 418.315 412.739 L 418.68 413.763 L 418.534 414.419 L 417.876 415.007 L 417.512 416.249 L 417.438 417.2 L 417.438 418.37 L 417.438 419.101 L 417.438 420.05 L 417.438 421.734 L 417.95 422.464 L 418.315 423.052 L 418.534 423.782 L 419.118 424.294 L 419.776 425.025 L 420.069 425.538 L 420.872 426.048 L 421.165 426.636 L 421.53 427.22 L 422.333 428.318 L 422.626 428.683 L 423.284 429.341 L 423.502 429.706 L 424.235 430.22 L 424.745 430.804 L 425.331 431.39 L 425.84 432.197 L 425.989 433.218 L 425.989 434.388 L 425.989 435.195 L 425.989 435.999 L 425.696 436.583 L 424.965 437.607 L 424.745 438.339 L 423.942 439.509 L 422.993 440.093 L 422.042 440.458 L 420.506 440.679 L 419.557 440.825 L 418.606 440.825 L 417.876 441.046 L 416.561 440.534 L 415.684 440.388 L 414.807 440.681 L 414.223 440.827 L 413.493 441.558 L 412.981 442.142 L 412.397 442.874 L 412.178 443.532 L 411.885 444.191 L 411.885 445.068 L 411.667 445.947 L 411.374 446.677 L 411.229 447.261 L 410.571 447.847 L 409.913 448.945 L 409.62 449.458 L 408.598 449.677 L 407.354 450.042 L 406.331 450.189 L 405.454 450.407 L 404.579 450.554 L 403.555 451.138 L 402.606 451.798 L 401.729 452.603 L 400.924 452.968 L 400.631 453.552 L 399.682 454.064 L 399.098 453.991 L 398.294 453.698 L 397.71 453.552 L 396.905 452.968 L 396.174 452.894 L 395.663 452.821 L 395.153 452.894 L 394.129 452.968 L 393.399 453.114 L 391.936 453.698 L 391.131 453.919 L 390.475 454.577 L 390.254 455.089 L 389.452 455.601 L 388.575 455.823 L 387.624 456.187 L 386.895 456.771 L 386.016 456.993 L 384.92 456.993 L 383.825 457.724 L 383.46 458.38 L 382.436 458.892 L 381.485 459.185 L 380.827 459.696 L 380.461 460.062 L 379.366 460.722 L 378.198 461.38 L 377.393 461.308 L 376.663 461.821 L 376.663 463.064 L 376.809 463.941 L 377.1 464.89 L 377.172 465.695 L 377.063 465.941 C 377.131 466.319 377.196 466.669 377.264 467.042 L 377.313 467.081 L 377.825 467.448 L 378.555 468.253 L 378.628 468.398 L 378.921 468.691 L 379.139 469.202 L 379.579 469.863 L 379.797 470.374 L 380.016 470.667 L 380.528 471.398 L 381.04 471.909 L 381.624 472.642 L 382.063 473.519 L 382.282 473.812 L 382.794 475.056 L 383.087 476.226 L 383.598 476.517 L 383.962 477.03 L 384.475 477.761 L 384.62 478.198 L 384.913 478.784 L 385.204 479.37 L 385.715 480.099 L 386.008 480.831 L 386.667 481.417 L 387.032 482.001 L 387.178 482.368 L 387.835 483.757 L 388.128 484.122 L 388.274 484.415 L 388.565 484.927 L 388.932 485.22 L 389.223 485.513 L 389.296 485.806 L 389.516 486.32 L 389.661 486.613 L 390.028 487.489 L 390.54 488.073 L 390.612 488.294 L 390.686 488.806 L 390.831 489.099 L 391.124 489.464 L 391.344 489.976 L 391.491 490.343 L 391.782 490.706 L 392.221 491.366 L 392.294 491.585 L 392.44 491.878 L 392.585 492.097 L 393.098 492.902 L 393.389 493.341 L 393.682 493.779 L 394.046 494.292 L 394.413 494.95 L 394.778 495.462 L 394.923 495.827 L 395.288 496.558 L 395.653 496.923 L 395.874 497.288 L 396.165 497.946 L 396.458 498.751 L 396.749 499.337 L 397.042 499.775 L 397.333 500.507 L 397.479 500.798 L 397.844 501.312 L 398.21 502.042 L 398.503 502.556 L 398.868 503.361 L 399.087 503.726 L 399.6 504.239 L 399.745 504.456 L 399.891 504.823 L 400.038 505.189 L 400.403 505.554 L 400.55 505.847 L 400.915 506.214 L 401.061 506.652 L 401.354 507.234 L 401.647 507.673 L 401.866 507.966 L 402.012 508.333 L 402.085 508.771 L 402.378 509.282 L 402.743 509.941 L 402.962 510.306 L 403.255 510.673 L 403.401 510.966 L 403.546 511.257 L 403.546 511.478 L 403.425 512.388 L 403.628 512.878 L 404.212 513.464 L 404.358 513.831 L 404.725 514.415 L 405.018 515.001 L 405.456 515.732 L 405.602 516.462 L 406.698 517.048 L 407.282 517.048 L 408.159 516.534 L 408.671 516.316 L 409.548 515.804 L 409.913 515.657 L 410.79 515.073 L 411.448 515.001 L 412.616 515.585 L 414.298 516.39 L 414.809 516.755 L 415.614 517.195 L 416.637 517.778 L 417.587 517.999 L 418.391 518.583 L 418.975 519.241 L 419.706 519.679 L 420.29 519.827 L 421.02 520.339 L 422.044 520.923 L 422.846 521.288 L 423.286 521.435 L 424.675 522.019 L 425.04 522.386 L 425.991 522.896 L 426.575 523.775 L 427.378 524.068 L 427.598 524.798 L 427.452 525.603 L 427.378 526.263 L 427.378 526.921 L 427.452 527.433 L 427.452 528.31 L 427.452 529.261 L 427.524 529.993 L 427.891 530.724 L 427.964 531.673 L 427.598 532.333 L 427.598 532.698 L 427.964 533.796 L 428.11 534.38 L 427.964 534.747 L 428.329 535.696 L 428.036 536.21 L 428.036 536.794 L 428.11 538.111 L 428.403 538.915 L 428.548 539.427 L 428.694 540.304 L 428.548 540.599 L 428.403 541.403 L 428.182 541.915 L 428.036 542.72 L 428.036 543.304 L 427.891 544.183 L 427.524 545.062 L 427.598 545.939 L 427.817 546.743 L 427.671 547.403 L 427.526 547.987 L 427.38 548.571 L 427.38 549.23 L 427.307 549.888 L 427.161 550.695 L 426.794 552.376 L 426.721 552.962 L 426.721 553.4 L 426.794 553.911 L 426.649 554.644 L 426.503 555.521 L 426.356 555.886 L 426.356 556.253 L 426.284 557.058 L 426.137 557.716 L 426.065 558.3 L 425.919 559.325 L 425.993 560.421 L 425.626 561.737 L 425.774 562.323 L 425.993 562.98 L 426.212 563.493 L 426.577 564.517 L 426.796 564.88 L 427.016 565.759 L 427.307 566.489 L 427.526 567.077 L 427.526 567.954 L 427.089 568.759 L 426.942 569.71 L 426.723 570.368 L 426.723 571.099 L 426.577 571.538 L 426.137 572.853 L 425.772 573.439 L 425.772 574.095 L 425.553 574.827 L 425.481 575.706 L 425.262 576.071 L 425.116 576.583 L 424.969 577.169 L 424.823 577.827 L 424.676 578.411 L 424.383 578.997 L 424.018 579.728 L 423.944 580.607 L 423.653 581.044 L 423.434 581.411 L 423.581 581.775 L 423.872 582.507 L 423.725 583.019 L 423.506 583.896 L 423.653 584.261 L 423.872 584.919 L 423.725 585.724 L 423.213 586.456 L 423.36 586.821 L 423.579 587.187 L 423.872 587.771 L 423.944 588.357 L 423.872 588.722 L 423.434 589.234 L 423.579 589.747 L 423.799 590.259 L 423.944 590.843 L 423.872 591.21 L 423.653 591.575 L 423.506 592.38 L 423.579 593.112 L 424.237 593.696 L 423.799 594.355 L 423.501 594.653 C 423.5 594.833 423.5 594.901 423.499 595.109 L 423.579 595.597 L 424.165 596.476 L 423.506 597.3 C 423.51 597.777 423.517 598.296 423.524 598.818 L 423.653 599.109 L 423.725 599.622 L 423.579 600.134 L 423.542 600.421 C 423.548 600.711 423.562 601.034 423.569 601.331 L 423.725 601.743 L 423.798 602.4 L 423.87 603.278 L 424.016 603.937 L 423.636 603.538 C 423.644 603.787 423.65 604.023 423.659 604.273 L 424.169 604.862 L 424.169 604.161 L 424.827 603.355 L 425.923 602.55 L 427.167 601.745 L 428.188 601.38 L 429.067 601.015 L 429.651 599.407 L 430.454 598.308 L 432.354 597.431 L 433.45 596.773 L 434.911 595.968 L 436.227 595.53 L 437.104 594.724 L 438.126 594.359 L 437.762 591.872 L 439.661 592.019 L 440.759 591.872 L 442.073 590.775 L 442.95 591.652 L 443.973 592.31 L 446.458 592.677 L 446.677 592.79 L 447.042 591.796 L 448.284 588.87 L 448.796 586.237 L 449.819 584.407 L 452.231 577.605 L 452.815 576.216 L 453.62 574.825 L 454.204 573.216 L 454.276 572.118 L 454.862 571.023 L 455.372 569.339 L 456.104 566.778 L 456.104 563.778 L 456.907 561.657 L 456.835 559.609 L 456.835 555.148 L 457.346 554.05 L 457.419 552.001 L 457.712 549.882 L 457.784 548.273 L 458.077 545.347 L 458.37 543.663 L 458.442 542.273 L 458.88 540.591 L 459.1 538.47 L 459.538 535.616 L 460.122 534.007 L 460.706 532.105 L 461.804 529.986 L 462.241 528.157 L 462.825 526.255 L 463.118 524.864 L 463.923 522.816 L 464.8 521.134 L 465.237 519.232 L 465.749 517.843 L 466.849 515.648 L 467.358 514.771 L 468.089 513.747 L 468.38 512.65 L 469.259 511.919 L 469.77 511.042 L 470.208 510.31 L 470.792 508.116 L 471.013 506.872 L 472.255 505.993 L 473.788 505.189 L 474.811 504.312 L 476.421 503.581 L 478.612 502.775 L 479.71 501.386 L 481.315 500.948 L 482.12 500.509 L 482.704 501.095 L 482.997 501.679 L 483.29 503.362 L 483.509 504.896 L 484.604 505.628 L 485.409 505.849 L 486.505 506.288 L 488.112 507.093 L 488.405 507.603 L 489.282 508.118 L 490.378 508.556 L 491.477 509.14 L 492.573 509.945 L 493.669 510.677 L 495.569 510.749 L 497.688 510.822 L 498.784 510.017 L 501.345 509.212 L 503.464 508.993 L 505.511 508.116 L 507.19 507.601 L 509.602 506.066 L 510.917 505.261 L 512.307 504.456 L 512.745 503.359 L 513.475 502.554 L 514.059 500.947 L 514.571 498.605 L 515.083 497.288 L 515.667 496.482 L 516.181 495.605 L 516.766 493.704 L 517.276 492.095 L 517.714 491.365 L 518.153 489.755 L 518.079 488.511 L 517.786 487.49 L 517.786 485.88 L 517.786 485.001 L 518.518 483.685 L 518.518 483.247 L 519.249 481.859 L 519.47 480.54 L 520.491 479.296 L 521.88 477.982 L 522.684 476.74 L 524.073 475.64 L 525.315 475.128 L 527.362 474.835 L 527.8 474.251 L 529.628 473.958 L 531.018 473.154 L 532.259 472.714 L 533.649 471.689 L 535.038 470.667 L 535.841 470.447 L 536.936 470.741 L 538.472 471.325 L 539.567 472.056 L 540.884 473.081 L 541.907 474.323 L 543.149 475.056 L 544.464 476.077 L 545.561 476.663 L 546.583 477.247 L 547.39 477.835 L 549.507 477.835 L 551.188 477.031 L 552.284 476.298 L 554.186 475.493 L 556.376 474.101 L 557.983 473.591 L 556.813 473.956 L 556.376 473.591 L 555.936 473.296 L 555.134 472.859 L 553.891 472.347 L 553.087 471.909 L 552.503 471.687 L 551.698 471.105 L 551.04 470.665 L 550.602 470.519 L 550.089 470.228 L 549.505 470.155 L 548.849 469.863 L 548.556 469.497 L 548.409 469.13 L 548.118 468.105 L 547.97 467.521 L 547.97 466.937 L 548.046 466.351 L 548.118 465.986 L 548.118 465.474 L 548.118 465.107 L 547.97 464.669 L 547.825 464.157 L 547.751 463.937 L 547.825 463.499 L 547.825 462.915 L 547.825 462.331 L 547.825 461.747 L 547.751 461.527 L 547.532 460.868 L 547.388 460.501 L 547.095 459.991 L 546.948 459.771 L 546.583 459.257 L 546.362 458.82 L 546.071 458.673 L 545.413 458.452 L 545.12 458.308 L 544.827 458.013 L 544.683 457.794 L 544.536 457.429 L 544.243 457.284 L 543.88 457.064 L 543.585 456.478 L 543.294 456.259 L 542.78 456.113 L 542.491 455.821 L 542.052 455.382 L 541.686 454.796 L 541.249 454.503 L 540.808 454.138 L 540.517 453.919 L 540.151 453.48 L 539.931 453.187 L 539.565 452.823 L 539.347 452.53 L 538.47 451.945 L 538.177 451.579 L 538.032 451.359 L 537.811 450.847 L 537.153 450.263 L 536.788 450.042 L 536.569 449.823 L 536.06 449.384 L 535.837 449.091 L 535.399 448.726 L 534.888 448.214 L 534.45 447.849 L 533.718 447.335 L 533.571 447.116 L 533.06 446.603 L 532.62 446.239 L 532.329 445.8 L 532.185 445.581 L 531.964 445.142 L 531.745 444.849 L 530.94 444.265 L 530.647 443.825 L 530.282 443.605 L 529.698 442.874 L 529.114 442.509 L 528.528 441.779 L 528.31 441.265 L 528.384 440.974 L 528.456 440.9 L 529.698 441.046 L 530.647 441.12 L 530.931 440.948 C 530.76 440.933 528.966 440.821 528.966 440.821 L 528.893 440.456 L 528.675 440.017 L 528.528 439.433 L 528.31 438.847 L 528.237 438.335 L 528.163 437.898 L 527.944 437.46 L 527.798 437.239 L 527.36 436.8 L 527.067 436.435 L 526.774 436.142 L 526.556 435.556 L 526.19 435.337 L 525.825 434.753 L 525.239 434.825 L 524.509 434.825 L 523.489 434.607 L 522.831 434.458 L 521.88 434.386 L 520.272 434.241 L 519.47 434.167 L 518.737 434.093 L 518.444 434.093 L 518.227 433.874 L 517.862 434.167 L 517.349 434.312 L 517.13 434.167 L 516.765 433.948 L 515.667 434.241 L 515.522 434.458 L 514.936 434.825 L 514.352 434.97 L 513.913 435.044 L 513.11 435.263 L 512.745 435.335 L 511.94 435.775 L 511.429 436.066 L 511.208 436.066 L 509.966 436.433 L 509.309 436.579 L 508.286 436.579 L 507.849 436.654 L 506.895 436.579 L 506.091 436.505 L 505.579 436.726 L 505.214 437.019 L 504.63 437.238 L 503.901 437.531 L 503.39 437.677 L 502.366 437.603 L 501.636 437.312 L 501.124 436.947 L 500.175 436.947 L 499.224 436.947 L 498.565 437.021 L 498.347 437.093 L 497.614 437.312 L 497.325 437.165 L 497.251 436.872 L 497.251 436.361 L 497.251 435.995 L 497.325 435.484 L 497.251 434.898 L 497.106 434.386 L 496.96 434.019 L 496.888 433.802 L 496.888 433.509 L 496.96 433.142 L 496.96 432.923 L 497.034 432.63 L 496.96 432.337 L 496.813 431.9 L 496.669 431.388 L 496.374 430.874 L 496.083 430.29 L 495.499 429.997 L 494.694 429.923 L 494.183 429.779 L 493.669 429.556 L 493.085 429.263 L 492.138 429.263 L 491.915 429.484 L 491.55 429.997 L 491.04 430.218 L 490.31 430.509 L 489.726 430.509 L 488.776 430.583 L 487.825 430.583 L 487.313 430.874 L 487.091 431.533 L 486.872 432.044 L 486.507 432.704 L 486.362 433.286 L 485.995 433.874 L 485.63 434.386 L 485.339 434.679 L 484.753 435.044 L 484.024 435.482 L 483.585 435.849 L 482.929 436.066 L 482.417 436.214 L 481.905 436.359 L 481.54 436.654 L 481.175 436.872 L 480.737 437.384 L 480.442 437.677 L 480.224 437.97 L 480.003 438.263 L 480.003 438.628 L 479.858 438.993 L 479.64 439.579 L 479.567 440.238 L 479.274 440.968 L 479.2 441.773 L 479.2 442.286 L 479.2 443.017 L 479.2 443.236 L 479.274 443.966 L 479.274 444.624 L 479.419 444.991 L 479.493 445.575 L 479.419 446.087 L 479.2 446.527 L 478.616 446.747 L 477.448 446.892 L 476.569 446.892 L 475.474 446.966 L 474.145 446.966 L 473.632 446.673 L 472.684 446.527 L 471.954 446.527 L 471.296 446.747 L 470.784 446.747 L 470.2 446.527 L 469.395 446.673 L 468.739 447.697 L 468.718 447.886 L 468.384 447.845 L 467.727 447.48 L 467.288 447.187 L 467.069 446.822 L 466.704 446.384 L 466.12 446.238 L 465.683 445.872 L 465.169 445.359 L 464.657 444.775 L 464.292 444.628 L 463.927 443.97 L 463.343 443.384 L 462.903 442.947 L 462.466 442.8 L 461.661 442.142 L 461.296 442.142 L 460.712 441.779 L 459.981 440.898 L 459.835 440.314 L 459.542 439.73 L 459.177 439.216 L 459.104 438.411 L 459.104 437.9 L 459.104 437.462 L 458.884 436.73 L 458.518 436.292 L 457.934 435.634 L 457.569 435.267 L 456.983 434.902 L 456.692 434.318 L 456.692 433.441 L 456.692 432.71 L 457.202 432.124 L 457.714 431.757 L 458.737 431.757 L 459.104 431.906 L 459.763 432.562 L 460.2 433.441 L 460.2 433.878 L 460.491 434.39 L 460.931 434.613 L 461.515 434.757 L 461.88 434.829 L 462.684 434.318 L 463.415 433.441 L 463.561 432.853 L 463.854 431.976 L 464.657 431.099 L 464.804 430.734 L 465.241 430.148 L 465.753 429.052 L 465.899 428.464 L 465.899 427.88 L 465.899 427.294 L 465.899 426.783 L 466.046 426.199 L 466.046 425.906 L 466.192 425.54 L 467.505 424.663 L 468.091 424.441 L 468.311 424.15 L 468.675 423.636 L 469.263 423.345 L 469.626 422.831 L 469.698 422.175 L 469.917 421.37 L 469.917 420.638 L 469.698 420.126 L 469.626 419.54 L 469.626 419.103 L 469.772 418.37 L 470.401 418.089 L 470.358 418.075 L 469.993 418.003 L 469.114 417.712 L 468.239 417.345 L 467.727 417.126 L 467.143 416.759 L 466.118 416.833 L 465.022 416.687 L 464.804 416.322 L 464.218 415.81 L 464.145 415.222 L 464.218 414.931 L 464.364 414.345 L 464.438 413.615 L 464.95 412.956 L 465.169 412.37 L 465.68 411.859 L 466.118 410.761 L 466.557 410.103 L 466.776 409.738 L 467.069 409.372 L 467.36 408.859 L 467.727 408.275 L 468.091 407.837 L 468.456 407.398 L 468.821 406.96 L 468.893 406.448 L 469.261 405.788 L 469.333 405.425 L 469.698 404.62 L 469.698 404.034 L 469.333 403.521 L 469.333 403.157 L 468.456 402.572 L 468.091 402.206 L 467.651 401.62 L 467.286 401.181 L 466.702 400.816 L 465.661 400.222 L 465.149 400.075 L 464.565 399.857 L 463.47 399.564 L 463.177 399.417 L 461.862 398.759 L 461.276 398.322 L 460.618 398.029 L 460.106 397.954 L 459.083 397.517 L 458.718 397.224 L 458.352 396.857 L 457.841 396.491 L 457.548 396.128 L 457.257 395.907 L 456.891 395.615 L 456.38 394.956 L 455.575 394.519 L 455.284 394.079 L 454.698 393.714 L 454.114 393.13 L 453.384 392.763 L 452.727 392.179 L 451.923 391.814 L 451.046 391.3 L 450.39 390.716 L 449.876 390.716 L 448.708 390.57 L 446.661 390.497 L 445.493 390.132 L 445.128 389.765 L 442.716 388.595 L 441.766 387.864 L 441.399 387.425 L 440.743 386.841 L 440.376 386.255 L 439.499 385.671 L 439.061 385.085 L 438.696 384.573 L 438.184 384.427 L 437.015 384.501 L 435.479 384.501 L 434.382 384.355 L 433.725 384.208 L 432.774 384.136 L 432.19 384.136 L 431.167 384.208 L 430.655 384.136 L 430.218 383.917 L 429.487 383.917 L 428.757 383.917 L 427.952 383.917 L 427.368 383.917 Z" transform="matrix(1, 0, 0, 1, -63.91729736328125, -220.78976440429688)"/></svg>