<?xml version="1.0" standalone="no"?>
<!DOCTYPE svg PUBLIC "-//W3C//DTD SVG 20010904//EN"
 "http://www.w3.org/TR/2001/REC-SVG-20010904/DTD/svg10.dtd">
<svg version="1.0" xmlns="http://www.w3.org/2000/svg"
 width="300.000000pt" height="355.000000pt" viewBox="0 0 300.000000 355.000000"
 preserveAspectRatio="xMidYMid meet">
<metadata>
Created by potrace 1.10, written by Peter Selinger 2001-2011
</metadata>
<g transform="translate(0.000000,355.000000) scale(0.100000,-0.100000)"
fill="#000000" stroke="none">
<path d="M916 3400 c3 -8 11 -28 16 -45 6 -16 21 -41 33 -55 33 -37 39 -73 15
-95 -11 -10 -20 -24 -20 -32 0 -8 -14 -32 -31 -53 l-31 -38 -65 29 c-36 16
-66 29 -66 29 -8 0 -4 -93 5 -123 9 -29 9 -40 0 -49 -7 -7 -12 -31 -12 -54 0
-38 7 -51 65 -119 71 -84 78 -108 45 -162 -26 -43 -54 -56 -111 -51 -52 5 -79
-11 -79 -47 0 -10 -9 -33 -21 -51 -16 -27 -29 -35 -61 -41 -24 -3 -55 -18 -75
-36 -30 -26 -37 -28 -59 -18 -35 15 -80 14 -97 -4 -8 -8 -34 -22 -58 -31 -24
-10 -46 -20 -49 -23 -9 -10 -64 -42 -83 -48 -24 -8 -14 -56 23 -103 15 -19 44
-66 66 -103 21 -38 52 -90 67 -115 15 -26 32 -56 36 -68 5 -12 26 -46 45 -77
20 -31 36 -60 36 -64 0 -4 18 -34 39 -67 36 -54 46 -74 83 -163 15 -38 17 -38
44 -18 28 21 53 18 109 -15 28 -16 70 -40 95 -54 87 -46 88 -48 96 -171 9
-134 9 -130 -5 -235 -28 -206 -28 -214 -14 -249 15 -36 12 -62 -23 -171 -13
-41 -18 -95 -19 -216 l-2 -161 28 14 c15 8 30 22 33 31 4 10 30 30 60 44 39
19 55 34 58 50 2 14 9 22 18 20 7 -2 24 2 37 9 19 10 26 9 41 -4 29 -26 40
-20 52 26 6 23 15 51 20 62 77 171 97 250 115 442 17 181 38 312 57 347 6 11
17 41 24 66 26 94 75 204 96 220 4 3 13 23 20 44 11 31 23 44 68 68 30 16 61
35 70 42 39 33 62 26 75 -24 8 -32 147 -115 179 -106 67 17 129 37 160 51 42
20 86 62 86 82 0 8 14 46 31 86 21 50 29 81 25 101 -15 75 63 186 148 211 28
9 67 27 88 41 l37 26 46 -22 c25 -12 45 -25 45 -30 0 -12 77 -60 96 -60 20 0
94 31 94 39 0 3 -21 15 -46 26 -25 11 -49 25 -54 30 -5 6 -10 37 -12 70 l-5
60 -141 139 c-124 121 -142 143 -142 171 0 44 -24 61 -96 69 -46 5 -70 3 -100
-10 -64 -28 -134 -38 -224 -31 -34 2 -35 3 -38 50 -3 41 -7 49 -29 58 -18 7
-30 6 -37 -1 -5 -5 -20 -10 -32 -10 -14 0 -26 -10 -34 -29 -6 -17 -25 -35 -42
-42 -49 -20 -58 -35 -58 -99 0 -68 -5 -72 -95 -68 -39 2 -60 -2 -63 -10 -6
-20 -20 -14 -77 38 -30 28 -59 50 -64 50 -10 0 -31 46 -31 69 0 11 -7 22 -16
25 -10 4 -14 16 -12 38 4 43 42 52 69 17 10 -13 19 -22 21 -19 19 30 38 76 38
95 0 15 11 32 31 45 24 18 30 28 27 54 -2 25 -8 32 -29 34 -15 2 -35 12 -44
22 -19 21 -16 31 45 128 31 49 32 53 17 70 -9 10 -43 29 -74 42 -32 13 -78 40
-103 60 -71 58 -93 70 -123 70 -36 0 -63 14 -107 55 -31 29 -43 33 -103 37
-58 3 -67 2 -61 -12z m160 -59 c32 -23 73 -42 97 -46 42 -7 83 -30 125 -71 12
-12 52 -36 87 -53 36 -17 68 -37 71 -46 3 -8 -3 -27 -13 -42 -26 -37 -53 -97
-53 -116 0 -9 17 -29 37 -46 33 -27 36 -34 25 -49 -12 -17 -33 -61 -46 -96 -5
-15 -13 -17 -41 -13 -38 6 -85 -22 -85 -50 0 -8 15 -47 34 -87 46 -97 151
-185 200 -167 11 5 44 7 71 6 28 -1 60 2 72 8 24 11 46 55 42 83 -5 33 11 64
41 79 16 8 35 24 42 34 31 44 85 50 92 10 10 -57 15 -61 96 -73 33 -6 129 10
210 34 61 18 108 13 135 -15 14 -13 25 -34 25 -46 0 -14 46 -68 137 -160 136
-139 136 -139 144 -196 6 -44 14 -63 33 -80 15 -12 26 -27 26 -33 0 -19 -28
-10 -73 24 -87 67 -125 78 -164 51 -12 -9 -50 -26 -84 -39 -116 -43 -163 -102
-178 -224 -12 -88 -62 -210 -98 -239 -15 -13 -63 -35 -107 -49 l-78 -26 -62
31 c-37 20 -71 46 -85 67 -38 56 -53 59 -119 28 -84 -40 -120 -70 -147 -122
-129 -249 -184 -445 -200 -717 -4 -72 -23 -181 -39 -223 -13 -35 -60 -154 -84
-213 -9 -22 -19 -27 -63 -32 -41 -5 -60 -14 -88 -40 -39 -37 -102 -77 -120
-77 -7 0 -11 35 -11 113 0 87 6 130 24 195 17 59 22 99 19 135 -7 79 -4 176 7
232 15 77 18 190 8 300 -11 112 -24 135 -102 176 -23 12 -63 33 -91 47 -27 14
-72 28 -100 31 l-50 6 -37 70 c-20 39 -51 97 -69 130 -17 33 -45 79 -60 102
-16 23 -29 45 -29 48 0 9 -133 236 -171 293 -16 23 -29 49 -29 56 0 16 30 37
130 89 64 33 81 38 119 33 36 -5 52 -1 96 24 29 17 60 30 70 30 22 0 85 65 85
89 0 27 24 42 73 46 86 5 137 57 137 138 0 34 -21 70 -96 159 -20 25 -22 36
-20 128 2 55 6 103 10 107 3 4 21 0 39 -9 35 -17 67 -10 100 20 24 21 77 125
77 150 0 10 -14 40 -30 66 -17 26 -28 52 -25 57 13 20 59 7 111 -30z"/>
</g>
</svg>
