<?xml version="1.0" standalone="no"?>
<!DOCTYPE svg PUBLIC "-//W3C//DTD SVG 20010904//EN"
 "http://www.w3.org/TR/2001/REC-SVG-20010904/DTD/svg10.dtd">
<svg version="1.0" xmlns="http://www.w3.org/2000/svg"
 width="708.000000pt" height="1276.000000pt" viewBox="0 0 708.000000 1276.000000"
 preserveAspectRatio="xMidYMid meet">

<g transform="translate(0.000000,1276.000000) scale(0.100000,-0.100000)"
fill="#000000" stroke="none">
<path d="M5540 12390 c0 -30 0 -30 -56 -30 -57 0 -84 -14 -84 -44 0 -9 -8 -16
-20 -16 -13 0 -20 -7 -20 -20 0 -13 -7 -20 -20 -20 -15 0 -20 -7 -20 -26 0
-17 -14 -39 -40 -64 -22 -21 -40 -44 -40 -50 0 -7 -13 -25 -30 -40 -16 -15
-30 -33 -30 -39 0 -17 -47 -61 -65 -61 -8 0 -15 -4 -15 -10 0 -5 -9 -10 -20
-10 -11 0 -20 5 -20 10 0 6 -9 10 -20 10 -11 0 -20 5 -20 10 0 6 -13 10 -30
10 -27 0 -30 3 -30 30 0 17 -4 30 -10 30 -5 0 -10 9 -10 20 0 11 -4 20 -10 20
-5 0 -10 -4 -10 -10 0 -5 -4 -10 -10 -10 -5 0 -10 9 -10 20 0 16 -7 20 -30 20
-28 0 -30 -3 -30 -36 0 -19 -7 -42 -15 -50 -13 -14 -17 -14 -30 0 -8 8 -15 22
-15 30 0 11 -9 16 -30 16 -28 0 -30 -3 -30 -36 0 -19 -7 -42 -15 -51 -14 -14
-18 -13 -34 6 -10 12 -28 21 -40 21 -25 0 -91 62 -91 85 0 8 -9 15 -20 15 -11
0 -20 -4 -20 -10 0 -5 -9 -10 -20 -10 -11 0 -20 5 -20 10 0 6 -13 10 -30 10
-27 0 -30 -3 -30 -30 0 -30 -14 -40 -24 -17 -5 10 -7 10 -12 0 -3 -7 -14 -13
-25 -13 -14 0 -19 7 -19 26 0 41 -51 75 -63 42 -2 -8 -15 -1 -34 20 -47 49
-103 37 -103 -22 0 -22 -4 -26 -30 -26 -16 0 -30 -4 -30 -10 0 -18 -35 -11
-50 10 -8 11 -20 20 -28 20 -18 0 -42 -25 -42 -44 0 -9 -4 -16 -10 -16 -5 0
-10 -9 -10 -20 0 -11 -4 -20 -10 -20 -5 0 -10 21 -10 46 0 44 -16 74 -40 74
-17 0 -40 -26 -40 -44 0 -9 -4 -16 -10 -16 -5 0 -10 12 -10 26 0 29 -31 67
-38 46 -9 -28 -62 -1 -62 32 0 9 -8 16 -20 16 -11 0 -20 -4 -20 -10 0 -5 -22
-10 -49 -10 -30 0 -51 -5 -54 -12 -4 -10 -8 -9 -16 2 -8 12 -13 11 -29 -8 -27
-31 -32 -28 -32 18 0 22 -4 40 -10 40 -5 0 -10 9 -10 20 0 13 -7 20 -18 20
-10 0 -24 -9 -32 -20 -15 -21 -50 -28 -50 -10 0 18 -31 10 -55 -15 -14 -13
-25 -31 -25 -40 0 -12 -14 -15 -70 -15 -63 0 -70 -2 -70 -20 0 -11 -4 -20 -10
-20 -5 0 -10 5 -10 10 0 6 -4 10 -10 10 -5 0 -10 -7 -10 -16 0 -8 -6 -22 -14
-30 -17 -16 -46 -19 -46 -4 0 6 -9 10 -20 10 -16 0 -20 -7 -20 -30 0 -16 5
-30 10 -30 6 0 10 -4 10 -10 0 -5 -13 -10 -30 -10 -27 0 -30 -3 -30 -30 0 -16
-4 -30 -10 -30 -5 0 -10 -4 -10 -10 0 -5 9 -10 20 -10 16 0 20 7 20 30 0 27 3
30 30 30 23 0 30 4 30 20 0 11 -4 20 -10 20 -5 0 -10 5 -10 10 0 6 16 10 36
10 25 0 43 7 56 22 15 18 21 20 28 9 7 -12 11 -12 24 2 9 8 16 23 16 31 0 20
76 23 82 4 6 -17 38 14 38 36 0 9 5 16 10 16 6 0 10 9 10 20 0 26 8 25 31 -2
l19 -21 19 21 c34 40 71 17 71 -42 0 -33 2 -36 30 -36 23 0 30 4 30 20 0 11 5
20 10 20 6 0 10 -4 10 -10 0 -5 9 -10 20 -10 11 0 20 5 20 10 0 6 9 10 20 10
13 0 20 -7 20 -20 0 -13 7 -20 20 -20 11 0 20 5 20 10 0 6 9 10 20 10 11 0 20
-4 20 -10 0 -5 18 -10 40 -10 36 0 40 -2 40 -26 0 -29 21 -54 44 -54 11 0 16
9 16 30 0 23 4 30 20 30 17 0 20 -7 20 -50 0 -47 2 -50 26 -50 33 0 54 21 54
54 0 19 5 26 20 26 13 0 20 -7 20 -20 0 -11 5 -20 10 -20 6 0 10 5 10 10 0 6
14 10 30 10 17 0 30 5 30 10 0 6 14 10 30 10 28 0 30 2 30 40 0 22 5 40 10 40
6 0 10 -4 10 -10 0 -5 7 -10 16 -10 9 0 29 -13 44 -30 29 -31 55 -39 63 -17 2
7 8 8 13 3 5 -5 4 -11 -3 -13 -7 -3 -13 -13 -13 -24 0 -16 7 -19 50 -19 43 0
50 -3 50 -20 0 -13 7 -20 20 -20 17 0 20 7 20 50 0 28 5 50 10 50 6 0 10 -9
10 -20 0 -13 7 -20 20 -20 11 0 20 5 20 10 0 19 31 10 58 -17 17 -17 22 -28
14 -31 -18 -6 -15 -51 5 -70 12 -12 18 -13 21 -4 2 6 12 12 23 12 12 0 19 7
19 20 0 11 4 20 8 20 4 0 14 -9 22 -20 17 -23 55 -26 76 -6 8 8 14 31 14 50 0
20 3 36 6 36 11 0 34 -29 34 -44 0 -20 46 -21 66 -2 8 8 14 31 14 50 0 20 5
36 10 36 6 0 10 -13 10 -30 0 -23 4 -30 20 -30 11 0 20 5 20 10 0 6 5 10 10
10 6 0 10 -13 10 -30 0 -16 5 -30 10 -30 6 0 10 -4 10 -10 0 -5 -9 -10 -20
-10 -13 0 -20 -7 -20 -20 0 -11 -4 -20 -10 -20 -5 0 -10 -7 -10 -16 0 -8 -22
-37 -50 -64 -27 -27 -50 -54 -50 -60 0 -6 -16 -26 -35 -45 -26 -27 -43 -35
-70 -35 -19 0 -35 -4 -35 -10 0 -5 -9 -10 -20 -10 -11 0 -20 -4 -20 -10 0 -5
-9 -10 -20 -10 -18 0 -20 -7 -20 -60 0 -33 4 -60 10 -60 6 0 10 -18 10 -40 0
-22 -4 -40 -10 -40 -5 0 -10 -9 -10 -20 0 -11 -4 -20 -10 -20 -5 0 -10 -9 -10
-20 0 -11 -4 -20 -10 -20 -5 0 -10 -7 -10 -15 0 -20 -45 -65 -65 -65 -8 0 -15
-9 -15 -20 0 -17 -7 -20 -40 -20 -22 0 -40 -4 -40 -10 0 -5 -22 -10 -50 -10
-27 0 -50 -4 -50 -10 0 -5 -22 -10 -50 -10 -27 0 -50 -4 -50 -10 0 -5 5 -10
10 -10 6 0 10 -4 10 -10 0 -5 -13 -10 -29 -10 -16 0 -32 -6 -34 -12 -4 -10 -8
-10 -15 1 -9 12 -16 9 -43 -20 -20 -21 -34 -29 -36 -21 -5 14 -63 17 -63 2 0
-5 -8 -10 -18 -10 -10 0 -24 -9 -32 -20 -15 -21 -50 -28 -50 -10 0 6 -9 10
-20 10 -11 0 -20 -4 -20 -10 0 -5 -13 -10 -29 -10 -16 0 -31 -6 -34 -12 -3 -9
-11 -6 -24 10 -25 27 -44 28 -63 2 -8 -11 -26 -20 -41 -20 -15 0 -30 -6 -33
-12 -5 -10 -7 -10 -12 0 -12 25 -64 2 -64 -28 0 -17 -26 -40 -44 -40 -9 0 -16
-8 -16 -20 0 -17 -7 -20 -40 -20 l-40 0 0 -50 c0 -43 -3 -50 -19 -50 -11 0
-22 -6 -25 -12 -5 -10 -7 -10 -12 0 -8 17 -24 15 -24 -4 0 -9 10 -26 23 -37
15 -13 18 -21 10 -24 -7 -3 -13 -13 -13 -24 0 -10 -4 -19 -10 -19 -5 0 -10 -7
-10 -16 0 -20 -24 -44 -44 -44 -9 0 -16 -4 -16 -10 0 -5 -18 -10 -40 -10 -33
0 -40 -3 -40 -20 0 -11 -4 -20 -10 -20 -5 0 -10 5 -10 10 0 6 -4 10 -10 10 -5
0 -10 -9 -10 -20 0 -13 -7 -20 -20 -20 -11 0 -20 -4 -20 -10 0 -5 -9 -10 -20
-10 -13 0 -20 -7 -20 -20 0 -16 7 -20 30 -20 23 0 30 -5 30 -19 0 -11 6 -22
13 -25 10 -5 10 -7 0 -12 -7 -3 -13 -14 -13 -25 0 -10 -4 -19 -10 -19 -5 0
-10 5 -10 10 0 6 -9 10 -20 10 -17 0 -20 -7 -20 -40 0 -33 -3 -40 -20 -40 -15
0 -20 -7 -20 -26 0 -29 -21 -54 -44 -54 -12 0 -16 -10 -16 -40 0 -22 5 -40 10
-40 6 0 10 -17 10 -38 0 -26 6 -42 20 -52 38 -27 20 -110 -24 -110 -9 0 -16
-4 -16 -10 0 -5 -22 -10 -50 -10 -43 0 -50 3 -50 20 0 17 -7 20 -50 20 -27 0
-50 -4 -50 -10 0 -5 -4 -10 -10 -10 -5 0 -10 9 -10 20 0 23 -34 28 -44 8 -5
-10 -7 -10 -12 0 -3 6 -14 12 -25 12 -12 0 -19 7 -19 20 0 11 -4 20 -10 20 -5
0 -10 9 -10 20 0 11 -4 20 -10 20 -6 0 -10 27 -10 60 0 33 4 60 10 60 6 0 10
22 10 48 0 36 -5 51 -20 62 -25 18 -26 30 -1 30 11 0 22 6 24 13 4 9 8 9 15
-2 9 -12 13 -12 26 2 18 17 22 67 6 67 -5 0 -10 14 -10 30 0 29 -1 30 -50 30
-43 0 -50 3 -50 20 0 13 -7 20 -18 20 -10 0 -24 9 -32 20 -11 15 -26 20 -62
20 -41 0 -48 3 -48 20 0 16 -7 20 -30 20 -23 0 -30 4 -30 20 0 13 7 20 20 20
11 0 20 -4 20 -10 0 -5 14 -10 30 -10 17 0 30 -4 30 -10 0 -5 18 -10 40 -10
22 0 40 -4 40 -10 0 -5 23 -10 50 -10 28 0 50 5 50 10 0 6 18 10 40 10 38 0
40 2 40 30 0 23 -4 30 -20 30 -16 0 -20 7 -20 30 0 17 -4 30 -10 30 -15 0 -12
29 4 46 8 8 22 14 30 14 9 0 16 7 16 15 0 20 -65 85 -85 85 -8 0 -15 5 -15 10
0 6 -9 10 -20 10 -11 0 -20 5 -20 10 0 6 -9 10 -20 10 -11 0 -20 5 -20 10 0 6
-7 10 -16 10 -20 0 -44 24 -44 44 0 9 -4 16 -10 16 -15 0 -12 49 4 66 8 8 22
14 30 14 19 0 22 56 4 62 -25 9 20 38 56 38 20 0 36 5 36 10 0 6 16 10 36 10
27 0 43 7 64 30 16 17 38 30 52 30 13 0 30 9 38 20 8 11 21 20 28 20 8 0 27
14 42 30 17 18 38 30 54 30 19 0 26 5 26 19 0 11 6 22 13 25 10 5 10 7 0 12
-21 10 -16 44 7 44 13 0 20 7 20 20 0 13 -7 20 -20 20 -11 0 -20 5 -20 10 0 6
9 10 20 10 13 0 20 7 20 20 0 11 -4 20 -10 20 -5 0 -10 9 -10 20 0 13 -7 20
-20 20 -26 0 -25 -8 2 -31 l21 -19 -21 -19 c-12 -10 -22 -30 -22 -45 0 -14 -4
-26 -10 -26 -5 0 -10 -9 -10 -20 0 -11 5 -20 10 -20 6 0 10 -9 10 -20 0 -13
-7 -20 -18 -20 -10 0 -24 -9 -32 -20 -8 -11 -21 -20 -30 -20 -9 0 -22 -9 -30
-20 -8 -11 -22 -20 -32 -20 -10 0 -18 -4 -18 -10 0 -5 -7 -10 -16 -10 -9 0
-29 -13 -44 -30 -21 -23 -37 -30 -64 -30 -20 0 -36 -4 -36 -10 0 -5 -21 -10
-46 -10 -26 0 -51 -6 -60 -14 -17 -18 -18 -63 -1 -69 7 -2 0 -15 -20 -34 -32
-30 -46 -83 -23 -83 15 0 12 -70 -4 -86 -9 -9 -35 -14 -70 -14 -31 0 -56 -4
-56 -10 0 -5 -22 -10 -50 -10 -43 0 -50 -3 -50 -20 0 -11 -4 -20 -10 -20 -5 0
-10 -9 -10 -20 0 -13 -7 -20 -20 -20 -11 0 -20 -4 -20 -10 0 -18 -35 -11 -50
10 -8 12 -26 20 -42 20 -26 0 -28 -3 -28 -40 0 -22 -4 -40 -10 -40 -5 0 -10
-18 -10 -40 0 -22 -4 -40 -10 -40 -5 0 -10 -7 -10 -16 0 -9 -10 -26 -22 -37
-16 -13 -19 -21 -10 -24 6 -3 12 -13 12 -24 0 -17 8 -19 90 -19 l90 0 0 -30
c0 -21 -5 -30 -16 -30 -23 0 -44 -25 -44 -54 0 -14 -4 -26 -10 -26 -5 0 -10
-9 -10 -20 0 -13 -7 -20 -20 -20 -16 0 -20 -7 -20 -30 0 -16 5 -30 10 -30 6 0
10 -7 10 -16 0 -9 14 -29 30 -44 17 -15 30 -31 30 -34 0 -3 -13 -6 -30 -6 -16
0 -30 -4 -30 -10 0 -5 -7 -10 -16 -10 -9 0 -26 -10 -37 -22 -13 -16 -21 -19
-24 -10 -3 6 -13 12 -23 12 -10 0 -20 6 -23 13 -2 7 -15 0 -34 -20 -17 -18
-38 -33 -47 -33 -9 0 -16 -7 -16 -16 0 -8 -6 -22 -14 -30 -17 -16 -46 -19 -46
-4 0 6 -9 10 -20 10 -11 0 -20 5 -20 10 0 6 5 10 10 10 6 0 10 9 10 20 0 11
-4 20 -10 20 -5 0 -10 -4 -10 -10 0 -5 -9 -10 -20 -10 -11 0 -20 -4 -20 -10 0
-5 -18 -10 -40 -10 l-40 0 0 -50 c0 -27 -4 -50 -10 -50 -5 0 -10 -9 -10 -20 0
-16 -7 -20 -30 -20 -16 0 -30 5 -30 10 0 6 -16 10 -36 10 -35 0 -64 18 -64 40
0 6 -18 29 -40 50 -22 21 -40 44 -40 50 0 19 -33 47 -38 32 -6 -19 -22 -14
-22 8 0 11 -4 20 -10 20 -5 0 -10 9 -10 20 0 13 -7 20 -20 20 -11 0 -20 5 -20
10 0 6 -9 10 -20 10 -11 0 -20 5 -20 10 0 6 -13 10 -30 10 -23 0 -30 4 -30 20
0 13 -7 20 -20 20 -11 0 -20 5 -20 10 0 6 -13 10 -30 10 -16 0 -30 5 -30 10 0
18 -35 11 -50 -10 -8 -12 -26 -20 -42 -20 -15 0 -28 -4 -28 -10 0 -5 -16 -10
-36 -10 -48 0 -64 -19 -64 -74 l0 -46 -60 0 c-33 0 -60 4 -60 10 0 6 -18 10
-40 10 -22 0 -40 5 -40 10 0 6 -13 10 -30 10 -35 0 -38 -10 -10 -30 21 -15 28
-50 10 -50 -5 0 -10 -13 -10 -30 0 -16 5 -30 10 -30 6 0 10 -13 10 -30 0 -16
5 -30 10 -30 6 0 10 5 10 10 0 6 14 10 30 10 22 0 30 -5 30 -18 0 -10 9 -24
20 -32 11 -8 20 -20 20 -27 0 -16 265 -283 280 -283 18 0 85 -73 72 -78 -28
-9 -1 -62 32 -62 9 0 16 -8 16 -20 0 -11 -4 -20 -10 -20 -15 0 -12 -29 4 -46
17 -16 46 -19 46 -4 0 6 9 10 20 10 11 0 20 -4 20 -10 0 -5 7 -10 16 -10 8 0
33 -18 54 -40 36 -38 70 -52 70 -30 0 6 5 10 10 10 6 0 10 -9 10 -20 0 -11 5
-20 10 -20 6 0 10 -9 10 -20 0 -11 5 -20 10 -20 6 0 10 -9 10 -20 0 -11 5 -20
10 -20 6 0 10 -9 10 -20 0 -11 -4 -20 -10 -20 -5 0 -10 -13 -10 -30 0 -16 -4
-30 -10 -30 -5 0 -10 -16 -10 -35 0 -25 -8 -44 -25 -60 -24 -25 -75 -35 -75
-15 0 6 -9 10 -20 10 -11 0 -20 5 -20 10 0 6 -7 10 -16 10 -9 0 -29 14 -44 30
-15 17 -35 30 -44 30 -9 0 -16 5 -16 10 0 6 -9 10 -20 10 -11 0 -20 5 -20 10
0 6 -9 10 -20 10 -11 0 -20 5 -20 10 0 6 -7 10 -16 10 -9 0 -29 14 -44 30 -15
17 -34 30 -42 30 -7 0 -20 9 -28 20 -8 11 -22 20 -32 20 -10 0 -18 5 -18 10 0
6 -8 10 -18 10 -10 0 -24 9 -32 20 -8 11 -21 20 -30 20 -9 0 -22 9 -30 20 -8
11 -22 20 -32 20 -11 0 -18 7 -18 20 0 13 -7 20 -18 20 -10 0 -24 9 -32 20 -8
11 -22 20 -32 20 -10 0 -18 5 -18 10 0 6 -8 10 -18 10 -10 0 -24 9 -32 20 -15
21 -50 28 -50 10 0 -5 -22 -10 -50 -10 l-50 0 0 -50 c0 -27 5 -50 10 -50 6 0
10 -13 10 -30 0 -16 -4 -30 -10 -30 -5 0 -10 -9 -10 -20 0 -11 -4 -20 -10 -20
-5 0 -10 -7 -10 -15 0 -20 -45 -65 -65 -65 -8 0 -15 -9 -15 -20 0 -11 -4 -20
-10 -20 -15 0 -12 -29 4 -46 8 -8 22 -14 30 -14 9 0 16 -4 16 -10 0 -5 7 -10
16 -10 8 0 37 -22 64 -50 33 -34 57 -50 74 -50 14 0 26 -4 26 -10 0 -5 12 -10
26 -10 29 0 67 -31 46 -38 -21 -7 -14 -42 8 -42 11 0 20 -4 20 -10 0 -5 5 -10
10 -10 6 0 10 9 10 20 0 27 7 25 40 -10 15 -16 33 -30 39 -30 7 0 47 -36 91
-80 44 -44 84 -80 90 -80 15 0 60 -46 60 -62 0 -8 9 -20 20 -28 11 -8 20 -22
20 -32 0 -10 5 -18 10 -18 6 0 10 -8 10 -18 0 -10 9 -24 20 -32 12 -8 20 -26
20 -42 0 -21 5 -28 20 -28 11 0 20 -4 20 -10 0 -5 20 -10 45 -10 45 0 48 -2
155 -110 60 -60 114 -110 120 -110 14 0 80 -66 80 -80 0 -18 27 -40 50 -40 23
0 70 -42 70 -62 0 -8 9 -20 20 -28 26 -18 26 -30 0 -30 -11 0 -20 -4 -20 -10
0 -5 -9 -10 -20 -10 -22 0 -27 -15 -7 -24 9 -5 9 -7 0 -12 -7 -3 -13 -14 -13
-24 0 -10 -6 -20 -12 -23 -7 -2 -10 -8 -6 -12 5 -5 16 2 27 13 10 12 26 22 35
22 22 0 20 -9 -5 -31 l-21 -18 28 -28 c17 -17 29 -23 32 -15 2 7 10 12 18 12
19 0 104 -85 104 -105 0 -8 5 -15 10 -15 6 0 10 -4 10 -10 0 -6 -33 -10 -80
-10 -73 0 -80 -2 -80 -20 0 -11 5 -20 10 -20 6 0 10 5 10 10 0 6 43 10 110 10
67 0 110 4 110 10 0 6 14 10 30 10 23 0 30 -4 30 -20 0 -11 5 -20 10 -20 6 0
10 -9 10 -20 0 -11 5 -20 10 -20 6 0 10 -12 10 -26 0 -16 12 -37 30 -54 17
-15 30 -35 30 -44 0 -9 5 -16 10 -16 6 0 10 -13 10 -30 0 -16 5 -30 10 -30 6
0 10 -30 10 -70 0 -40 4 -70 10 -70 6 0 10 -18 10 -40 0 -22 5 -40 10 -40 6 0
10 -13 10 -30 0 -16 5 -30 10 -30 6 0 10 -12 10 -26 0 -33 21 -54 54 -54 19 0
26 -5 26 -20 0 -16 -7 -20 -30 -20 -26 0 -30 -3 -30 -29 0 -16 6 -31 12 -33
17 -6 -14 -38 -36 -38 -9 0 -16 -8 -16 -20 0 -11 5 -20 10 -20 6 0 10 -9 10
-20 0 -13 7 -20 20 -20 11 0 20 -4 20 -10 0 -5 -9 -10 -20 -10 -24 0 -25 -6
-3 -28 12 -12 18 -13 21 -4 6 19 22 14 22 -8 0 -13 -7 -20 -20 -20 -11 0 -20
-4 -20 -10 0 -5 -9 -10 -20 -10 -11 0 -20 7 -20 15 0 20 -325 345 -345 345
-23 0 -19 -8 35 -60 27 -27 50 -54 50 -60 0 -6 27 -38 60 -70 37 -36 60 -67
60 -81 0 -12 10 -31 23 -42 15 -13 18 -21 10 -24 -7 -3 -13 -13 -13 -24 0 -12
-7 -19 -20 -19 -11 0 -20 -4 -20 -10 0 -5 -9 -10 -20 -10 -11 0 -20 -4 -20
-10 0 -5 -9 -10 -20 -10 -11 0 -20 -4 -20 -10 0 -5 -9 -10 -20 -10 -11 0 -20
-4 -20 -10 0 -5 -9 -10 -20 -10 -11 0 -20 -4 -20 -10 0 -5 -9 -10 -20 -10 -16
0 -20 -7 -20 -30 0 -16 5 -30 10 -30 6 0 10 -7 10 -15 0 -20 45 -65 65 -65 10
0 15 10 15 30 0 28 2 30 40 30 22 0 40 5 40 10 0 6 14 10 30 10 17 0 30 5 30
10 0 6 14 10 30 10 17 0 30 5 30 10 0 6 14 10 30 10 17 0 30 5 30 10 0 6 9 10
20 10 11 0 20 5 20 10 0 6 9 10 20 10 11 0 20 -2 20 -5 0 -11 -49 -55 -60 -55
-17 0 -40 -26 -40 -44 0 -9 -7 -16 -15 -16 -25 0 -65 -46 -65 -75 0 -14 5 -25
10 -25 6 0 10 -22 10 -50 0 -27 5 -50 10 -50 6 0 10 -13 10 -30 0 -23 4 -30
20 -30 11 0 20 -4 20 -10 0 -5 9 -10 20 -10 13 0 20 -7 20 -20 0 -12 7 -20 16
-20 9 0 29 -13 44 -30 15 -16 31 -30 34 -30 3 0 6 14 6 30 0 17 5 30 10 30 6
0 10 18 10 40 0 22 5 40 10 40 6 0 10 18 10 40 0 22 5 40 10 40 6 0 10 18 10
40 0 22 5 40 10 40 6 0 10 9 10 20 0 13 7 20 20 20 26 0 26 12 0 30 -11 8 -20
22 -20 32 0 27 71 25 90 -2 8 -11 21 -20 30 -20 9 0 22 -9 30 -20 8 -11 21
-20 30 -20 9 0 22 -9 30 -20 8 -11 21 -20 30 -20 9 0 22 -9 30 -20 8 -11 22
-20 32 -20 21 0 24 -16 6 -24 -10 -5 -10 -7 0 -12 6 -3 12 -14 12 -25 0 -14 7
-19 30 -19 17 0 30 -4 30 -10 0 -5 9 -10 20 -10 11 0 20 -4 20 -10 0 -5 7 -10
15 -10 19 0 145 -124 145 -143 0 -7 9 -19 20 -27 11 -8 20 -21 20 -28 0 -8 14
-27 30 -42 17 -15 30 -35 30 -44 0 -9 5 -16 10 -16 6 0 10 -9 10 -20 0 -13 7
-20 20 -20 12 0 20 -7 20 -16 0 -9 14 -29 30 -44 17 -15 30 -35 30 -44 0 -9 5
-16 10 -16 6 0 10 -8 10 -18 0 -10 9 -24 20 -32 11 -8 20 -22 20 -32 0 -10 5
-18 10 -18 6 0 10 -9 10 -20 0 -11 5 -20 10 -20 6 0 10 -9 10 -20 0 -11 5 -20
10 -20 6 0 10 -9 10 -20 0 -11 5 -20 10 -20 6 0 10 -9 10 -20 0 -11 5 -20 10
-20 6 0 10 -9 10 -20 0 -11 5 -20 10 -20 6 0 10 -9 10 -19 0 -11 6 -21 12 -23
20 -7 -17 -38 -44 -38 -13 0 -30 -9 -38 -20 -8 -12 -26 -20 -42 -20 -15 0 -28
-4 -28 -10 0 -5 -11 -10 -25 -10 -29 0 -95 -59 -95 -85 0 -8 -4 -15 -10 -15
-5 0 -10 -13 -10 -30 0 -16 5 -30 10 -30 6 0 10 -22 10 -50 0 -27 5 -50 10
-50 6 0 10 -18 10 -40 0 -22 5 -40 10 -40 6 0 10 -13 10 -30 0 -16 5 -30 10
-30 6 0 10 -18 10 -40 0 -22 5 -40 10 -40 6 0 10 -18 10 -40 0 -22 5 -40 10
-40 6 0 10 -22 10 -50 0 -27 5 -50 10 -50 6 0 10 -27 10 -60 0 -33 -4 -60 -10
-60 -5 0 -10 -18 -10 -40 0 -22 -4 -40 -10 -40 -5 0 -10 -18 -10 -40 0 -22 -4
-40 -10 -40 -5 0 -10 -9 -10 -20 0 -11 -4 -20 -10 -20 -5 0 -10 -13 -10 -30 0
-16 -4 -30 -10 -30 -5 0 -10 -13 -10 -30 0 -16 -4 -30 -10 -30 -5 0 -10 -13
-10 -30 0 -16 -4 -30 -10 -30 -5 0 -10 -9 -10 -20 0 -11 5 -20 10 -20 6 0 10
5 10 10 0 6 9 10 20 10 11 0 20 5 20 10 0 6 8 10 18 10 10 0 24 9 32 20 8 12
26 20 42 20 15 0 28 5 28 10 0 6 57 10 150 10 l150 0 0 -120 c0 -73 -4 -120
-10 -120 -5 0 -10 -7 -10 -15 0 -18 -44 -65 -60 -65 -33 0 -56 -71 -27 -84 10
-5 10 -7 0 -12 -7 -3 -13 -19 -13 -35 0 -16 -4 -29 -10 -29 -5 0 -10 -9 -10
-20 0 -11 -4 -20 -10 -20 -5 0 -10 -13 -10 -30 0 -16 -4 -30 -10 -30 -5 0 -10
-9 -10 -20 0 -11 -4 -20 -10 -20 -5 0 -10 -7 -10 -16 0 -8 -18 -33 -40 -54
-22 -21 -40 -46 -40 -54 0 -9 -8 -16 -20 -16 -13 0 -20 -7 -20 -20 0 -11 -4
-20 -10 -20 -22 0 -9 -53 20 -80 17 -15 30 -31 30 -34 0 -3 -16 -6 -36 -6 -45
0 -64 -19 -64 -64 0 -29 4 -36 20 -36 11 0 20 5 20 10 0 6 5 10 10 10 22 0 8
-34 -30 -70 -22 -21 -40 -44 -40 -50 0 -7 14 -25 30 -40 18 -17 30 -38 30 -54
0 -14 5 -26 10 -26 6 0 10 -7 10 -16 0 -8 18 -33 40 -54 22 -21 40 -46 40 -54
0 -9 5 -16 10 -16 14 0 12 -37 -2 -44 -10 -5 -10 -7 0 -12 6 -3 12 -23 12 -45
0 -21 5 -39 10 -39 6 0 10 -16 10 -35 0 -38 36 -85 65 -85 10 0 15 -10 15 -30
0 -23 4 -30 20 -30 15 0 20 -7 20 -26 0 -29 21 -54 44 -54 9 0 16 -4 16 -10 0
-5 9 -10 20 -10 11 0 20 -4 20 -10 0 -5 13 -10 28 -10 16 0 34 -8 42 -20 8
-11 22 -20 32 -20 10 0 18 -4 18 -10 0 -6 27 -10 60 -10 l60 0 0 -40 c0 -22 5
-40 10 -40 6 0 10 -9 10 -20 0 -13 7 -20 20 -20 15 0 20 -7 20 -26 0 -29 21
-54 44 -54 12 0 16 -10 16 -40 l0 -40 50 0 c43 0 50 -3 50 -20 0 -11 5 -20 10
-20 6 0 10 -13 10 -30 0 -16 5 -30 10 -30 6 0 10 -13 10 -30 0 -20 5 -30 15
-30 20 0 125 -105 125 -125 0 -8 5 -15 10 -15 6 0 10 -18 10 -40 0 -22 5 -40
10 -40 6 0 10 -9 10 -20 0 -16 7 -20 36 -20 27 0 43 -7 64 -30 15 -16 33 -30
39 -30 17 0 81 -67 81 -85 0 -8 5 -15 10 -15 6 0 10 -27 10 -60 l0 -60 30 0
c17 0 30 -4 30 -10 0 -14 38 -12 43 3 3 8 11 5 24 -10 11 -13 28 -23 37 -23
12 0 16 -10 16 -40 0 -22 -4 -40 -10 -40 -18 0 -11 -35 10 -50 11 -8 20 -25
20 -38 0 -27 21 -52 44 -52 9 0 16 -8 16 -20 0 -17 7 -20 40 -20 22 0 40 -4
40 -10 0 -5 9 -10 20 -10 16 0 20 -7 20 -30 0 -16 5 -30 10 -30 6 0 10 -18 10
-40 0 -22 -4 -40 -10 -40 -5 0 -10 -18 -10 -40 0 -22 -4 -40 -10 -40 -5 0 -10
-9 -10 -19 0 -11 -6 -22 -12 -25 -10 -5 -10 -7 0 -12 7 -4 12 -27 12 -65 0
-33 4 -59 10 -59 6 0 10 -30 10 -70 0 -40 4 -70 10 -70 6 0 10 -59 10 -156 0
-121 3 -159 14 -170 25 -24 56 -16 96 26 21 22 44 40 50 40 15 0 40 25 40 40
0 14 46 60 60 60 14 0 60 46 60 61 0 6 14 24 30 39 18 17 30 38 30 54 0 19 5
26 20 26 13 0 20 7 20 20 0 11 5 20 10 20 6 0 10 21 10 46 0 38 5 51 30 74 18
17 30 38 30 54 0 23 4 26 38 26 26 0 42 6 52 20 10 14 26 20 52 20 34 0 38 3
38 25 0 31 41 75 70 75 29 0 50 23 50 54 0 19 5 26 20 26 13 0 20 -7 20 -18 0
-10 9 -24 20 -32 11 -8 20 -22 20 -32 0 -13 8 -18 30 -18 23 0 30 4 30 20 0
11 5 20 10 20 6 0 10 -4 10 -10 0 -5 9 -10 20 -10 12 0 20 7 20 16 0 9 14 29
30 44 27 26 30 34 30 94 0 59 2 66 20 66 16 0 20 7 20 30 0 17 5 30 10 30 6 0
10 9 10 20 0 11 5 20 10 20 6 0 10 21 10 46 0 44 -16 74 -40 74 -17 0 -40 26
-40 44 0 9 -4 16 -10 16 -5 0 -10 13 -10 28 0 16 -8 34 -20 42 -11 8 -20 22
-20 32 0 10 -4 18 -10 18 -6 0 -10 27 -10 60 0 53 -2 60 -20 60 -16 0 -20 7
-20 30 0 17 -4 30 -10 30 -5 0 -10 9 -10 20 0 11 -4 20 -10 20 -5 0 -10 23
-10 50 0 28 -4 50 -10 50 -5 0 -10 23 -10 50 0 28 -4 50 -10 50 -5 0 -10 18
-10 40 0 22 -4 40 -10 40 -6 0 -10 27 -10 60 0 33 4 60 10 60 18 0 11 35 -10
50 -11 8 -20 22 -20 32 0 10 -4 18 -10 18 -14 0 -12 37 3 44 10 5 10 7 0 12
-7 3 -13 14 -13 24 0 10 6 21 13 24 10 5 10 7 0 12 -8 3 -13 25 -13 55 0 42
-3 49 -20 49 -16 0 -20 7 -20 30 0 17 -4 30 -10 30 -5 0 -10 18 -10 40 0 22
-4 40 -10 40 -6 0 -10 27 -10 60 0 33 -4 60 -10 60 -6 0 -10 26 -10 58 0 46
-4 60 -20 72 -21 15 -28 50 -10 50 6 0 10 9 10 20 0 13 7 20 20 20 13 0 20 7
20 20 0 11 -4 20 -10 20 -5 0 -10 18 -10 40 0 22 -4 40 -10 40 -5 0 -10 9 -10
20 0 11 -4 20 -10 20 -5 0 -10 -4 -10 -10 0 -5 -4 -10 -10 -10 -6 0 -10 77
-10 210 0 133 4 210 10 210 14 0 12 37 -2 44 -10 5 -10 7 0 12 6 3 12 14 12
24 0 10 -6 21 -12 24 -10 5 -10 7 0 12 6 3 12 23 12 44 0 21 6 41 13 43 9 4 8
8 -3 17 -11 9 -12 13 -2 17 7 3 12 24 12 54 0 42 3 49 20 49 11 0 20 5 20 10
0 6 -4 10 -10 10 -6 0 -10 60 -10 160 0 100 -4 160 -10 160 -6 0 -10 77 -10
210 0 133 4 210 10 210 6 0 10 23 10 50 0 28 5 50 10 50 6 0 10 18 10 40 0 22
5 40 10 40 6 0 10 13 10 28 0 16 8 34 20 42 11 8 20 22 20 32 0 11 7 18 19 18
11 0 21 6 24 13 2 7 15 0 34 -20 20 -21 41 -33 57 -33 14 0 26 -4 26 -10 0 -5
14 -10 30 -10 17 0 30 -4 30 -10 0 -5 9 -10 20 -10 11 0 20 5 20 10 0 6 14 10
30 10 23 0 30 4 30 20 0 16 7 20 38 20 26 0 42 6 52 20 8 11 20 20 28 20 24 0
42 28 42 64 0 20 5 36 10 36 6 0 10 27 10 60 0 33 4 60 10 60 6 0 10 18 10 40
0 22 -4 40 -10 40 -5 0 -10 14 -10 30 0 17 5 30 10 30 6 0 10 11 10 25 0 29
59 95 85 95 8 0 15 5 15 10 0 6 9 10 20 10 13 0 20 7 20 20 0 16 7 20 30 20
17 0 30 -4 30 -10 0 -5 18 -10 40 -10 22 0 40 -4 40 -10 0 -5 9 -10 19 -10 11
0 21 -6 24 -12 3 -9 11 -6 24 10 11 12 26 22 32 22 16 0 41 25 41 40 0 24 -30
40 -74 40 -44 0 -46 1 -46 30 0 17 -4 30 -10 30 -5 0 -10 16 -10 36 0 38 -18
64 -44 64 -9 0 -16 5 -16 10 0 6 -8 10 -18 10 -10 0 -24 9 -32 20 -8 12 -26
20 -42 20 -15 0 -28 5 -28 10 0 6 -12 10 -26 10 -29 0 -54 21 -54 44 0 9 -8
16 -20 16 -16 0 -20 7 -20 30 0 17 5 30 10 30 6 0 10 8 10 18 0 10 9 24 20 32
11 8 20 20 20 28 0 16 24 42 40 42 20 0 60 49 60 75 0 18 -5 25 -20 25 -11 0
-20 5 -20 10 0 6 -13 10 -30 10 -16 0 -30 5 -30 10 0 6 -9 10 -20 10 -11 0
-20 5 -20 10 0 6 -7 10 -16 10 -28 0 -44 27 -44 74 0 25 -4 46 -10 46 -5 0
-10 14 -10 30 0 23 -4 30 -20 30 -16 0 -20 7 -20 30 0 17 5 30 10 30 6 0 10 9
10 20 0 12 -7 20 -16 20 -18 0 -44 24 -44 40 0 7 -15 26 -32 43 -21 19 -28 32
-20 34 6 3 12 11 12 20 0 8 14 28 30 43 17 15 30 34 30 42 0 7 9 20 20 28 11
8 20 22 20 32 0 10 5 18 10 18 6 0 10 8 10 18 0 10 9 24 20 32 11 8 20 20 20
28 0 18 25 42 44 42 9 0 16 8 16 20 0 12 7 20 16 20 29 0 44 27 44 82 0 42 -4
57 -20 68 -17 12 -20 26 -20 90 0 64 3 78 20 90 21 15 28 50 10 50 -5 0 -10 9
-10 20 0 11 -4 20 -10 20 -5 0 -10 9 -10 20 0 11 -4 20 -10 20 -5 0 -10 13
-10 29 0 16 -6 31 -12 33 -17 6 14 38 36 38 9 0 16 8 16 20 0 17 -7 20 -40 20
-38 0 -40 2 -40 30 0 17 -4 30 -10 30 -5 0 -10 9 -10 20 0 11 -4 20 -10 20 -5
0 -10 9 -10 20 0 11 -4 20 -10 20 -15 0 -12 29 4 46 8 8 22 14 30 14 12 0 16
11 16 50 0 28 5 50 10 50 15 0 12 70 -4 86 -8 8 -26 14 -40 14 -14 0 -26 5
-26 10 0 6 -9 10 -20 10 -11 0 -20 5 -20 10 0 6 -13 10 -30 10 -27 0 -30 3
-30 30 0 17 -4 30 -10 30 -5 0 -10 7 -10 16 0 20 -24 44 -44 44 -11 0 -16 9
-16 28 0 16 -8 34 -20 42 -16 12 -20 26 -20 72 0 32 4 58 10 58 15 0 12 77 -2
84 -10 5 -10 7 0 12 6 3 12 14 12 25 0 10 5 19 10 19 6 0 10 14 10 30 l0 30
60 0 c47 0 60 3 60 15 0 9 11 27 25 40 24 25 55 33 55 15 0 -5 14 -10 30 -10
17 0 30 -4 30 -10 0 -5 18 -10 40 -10 22 0 40 5 40 10 0 6 7 10 16 10 8 0 23
7 31 16 14 13 14 17 2 24 -7 5 -10 12 -6 16 4 4 15 -3 26 -14 14 -17 30 -22
65 -22 25 0 46 -4 46 -10 0 -5 18 -10 40 -10 37 0 40 2 40 28 0 16 -8 34 -20
42 -11 8 -20 22 -20 32 0 10 -4 18 -10 18 -5 0 -10 9 -10 20 0 11 -4 20 -10
20 -5 0 -10 13 -10 29 0 16 -6 32 -12 35 -10 5 -10 7 0 12 9 4 12 40 12 131
l0 125 40 38 c37 35 40 43 40 90 0 47 -3 55 -40 90 -22 21 -40 46 -40 54 0 9
-8 16 -20 16 -13 0 -20 7 -20 20 0 13 -7 20 -20 20 -17 0 -20 7 -20 50 0 43
-3 50 -20 50 -11 0 -20 5 -20 10 0 6 -22 10 -50 10 -27 0 -50 5 -50 10 0 6 -9
10 -20 10 -13 0 -20 -7 -20 -20 0 -11 -4 -20 -10 -20 -14 0 -12 -38 2 -42 19
-7 -16 -38 -42 -38 -27 0 -70 43 -70 70 0 41 -71 90 -83 58 -3 -9 -11 -6 -24
10 -26 29 -73 30 -73 2 0 -11 5 -20 10 -20 6 0 10 -4 10 -10 0 -5 -13 -10 -30
-10 -16 0 -30 5 -30 10 0 14 -37 12 -44 -2 -5 -10 -7 -10 -12 0 -3 6 -14 12
-25 12 -10 0 -19 5 -19 10 0 6 -13 10 -30 10 -36 0 -41 27 -10 50 12 8 20 26
20 42 0 15 5 28 10 28 6 0 10 18 10 40 0 22 5 40 10 40 6 0 10 27 10 60 0 33
-4 60 -10 60 -5 0 -10 14 -10 30 0 17 -4 30 -10 30 -5 0 -10 14 -10 30 0 17
-4 30 -10 30 -6 0 -10 32 -10 76 0 78 11 104 44 104 9 0 16 5 16 10 0 6 18 10
40 10 22 0 40 5 40 10 0 6 7 10 16 10 8 0 22 6 30 14 16 17 19 66 4 66 -5 0
-10 14 -10 30 0 17 -4 30 -10 30 -6 0 -10 32 -10 76 0 57 4 79 17 92 12 12 18
13 21 4 2 -6 12 -12 23 -12 14 0 19 7 19 30 0 17 5 30 10 30 6 0 10 9 10 20 0
11 -4 20 -10 20 -5 0 -10 23 -10 50 0 28 -4 50 -10 50 -5 0 -10 23 -10 50 0
28 -4 50 -10 50 -5 0 -10 9 -10 20 0 11 5 20 10 20 14 0 12 38 -2 42 -9 3 -7
10 6 24 14 13 21 15 24 6 6 -19 36 -14 52 8 8 11 22 20 32 20 11 0 18 7 18 20
0 11 5 20 10 20 6 0 10 12 10 26 0 26 -20 54 -40 54 -17 0 -40 26 -40 44 0 9
-4 16 -10 16 -5 0 -10 14 -10 30 0 17 5 30 10 30 6 0 10 18 10 40 0 22 5 40
10 40 6 0 10 7 10 16 0 18 23 44 40 44 15 0 40 25 40 40 0 20 -28 40 -54 40
-14 0 -26 5 -26 10 0 6 -13 10 -30 10 -16 0 -30 5 -30 10 0 6 -8 10 -18 10
-10 0 -24 9 -32 20 -8 11 -20 20 -28 20 -18 0 -62 -46 -62 -65 0 -8 -4 -15
-10 -15 -5 0 -10 -9 -10 -20 0 -11 -4 -20 -10 -20 -5 0 -10 -13 -10 -30 0 -16
-4 -30 -10 -30 -5 0 -10 5 -10 10 0 6 -9 10 -20 10 -11 0 -20 5 -20 10 0 14
-37 12 -44 -2 -5 -10 -7 -10 -12 0 -3 6 -14 12 -25 12 -17 0 -19 8 -19 70 0
40 -4 70 -10 70 -5 0 -10 23 -10 50 0 28 -4 50 -10 50 -5 0 -10 14 -10 30 0
17 -4 30 -10 30 -18 0 -11 35 10 50 26 19 25 38 -2 63 -16 13 -19 21 -10 24 6
3 12 13 12 24 0 16 7 19 50 19 l50 0 0 40 c0 22 5 40 10 40 6 0 10 14 10 30 0
17 5 30 10 30 6 0 10 9 10 20 0 11 -4 20 -10 20 -5 0 -10 9 -10 20 0 11 -4 20
-10 20 -18 0 -11 55 10 70 15 11 20 26 20 62 0 26 -4 48 -10 48 -5 0 -10 8
-10 18 0 10 -9 24 -20 32 -15 11 -20 26 -20 62 0 41 -3 48 -20 48 -16 0 -20
-7 -20 -30z m20 -60 c0 -23 4 -30 20 -30 13 0 20 -7 20 -20 0 -11 5 -20 10
-20 6 0 10 -21 10 -46 0 -39 -5 -51 -31 -75 l-32 -29 22 -19 c11 -10 21 -26
21 -35 0 -9 5 -16 10 -16 6 0 10 -9 10 -20 0 -11 -4 -20 -10 -20 -5 0 -10 -8
-10 -18 0 -10 -9 -24 -20 -32 -21 -15 -28 -50 -10 -50 6 0 10 -4 10 -10 0 -5
-22 -10 -50 -10 -43 0 -50 -3 -50 -20 0 -11 -4 -20 -10 -20 -5 0 -10 -13 -10
-30 0 -23 4 -30 20 -30 27 0 25 -7 -12 -43 -21 -19 -28 -32 -20 -34 6 -3 12
-13 12 -24 0 -10 5 -19 10 -19 6 0 10 -13 10 -30 0 -16 5 -30 10 -30 6 0 10
-22 10 -50 0 -27 5 -50 10 -50 6 0 10 -29 10 -66 0 -46 5 -70 16 -81 13 -14
17 -14 26 -2 7 11 11 11 15 2 2 -7 18 -13 34 -13 26 0 29 -4 29 -30 0 -21 5
-30 16 -30 19 0 44 24 44 42 0 8 9 20 20 28 12 8 20 26 20 42 0 15 5 28 10 28
6 0 10 7 10 16 0 8 6 22 14 30 17 16 46 19 46 4 0 -5 13 -10 28 -10 16 0 34
-8 42 -20 10 -14 26 -20 52 -20 28 0 38 -4 38 -16 0 -20 -24 -44 -44 -44 -9 0
-16 -8 -16 -20 0 -11 -4 -20 -10 -20 -5 0 -10 -22 -10 -50 0 -27 -4 -50 -10
-50 -5 0 -10 -13 -10 -30 0 -16 5 -30 10 -30 6 0 10 -9 10 -20 0 -11 5 -20 10
-20 6 0 10 -9 10 -20 0 -12 7 -20 16 -20 18 0 44 -23 44 -40 0 -17 -73 -86
-78 -72 -5 17 -50 15 -68 -2 -17 -18 -18 -42 -1 -50 10 -5 10 -7 0 -12 -15 -7
-18 -84 -3 -84 6 0 10 -18 10 -40 0 -22 5 -40 10 -40 6 0 10 -22 10 -50 0 -27
5 -50 10 -50 6 0 10 -9 10 -20 0 -11 -4 -20 -10 -20 -5 0 -10 -9 -10 -20 0
-11 -4 -20 -10 -20 -5 0 -10 5 -10 10 0 15 -29 12 -46 -4 -17 -17 -21 -186 -4
-186 6 0 10 -18 10 -39 0 -22 5 -41 12 -43 17 -6 -14 -38 -36 -38 -9 0 -16 -4
-16 -10 0 -5 -17 -10 -38 -10 -26 0 -42 -6 -52 -20 -8 -11 -22 -20 -32 -20
-16 0 -18 -11 -18 -100 0 -60 4 -100 10 -100 6 0 10 -13 10 -30 0 -16 5 -30
10 -30 6 0 10 -9 10 -20 0 -11 5 -20 10 -20 6 0 10 -18 10 -40 0 -22 -4 -40
-10 -40 -5 0 -10 -22 -10 -50 0 -27 -4 -50 -10 -50 -5 0 -10 -13 -10 -28 0
-16 -8 -34 -20 -42 -11 -8 -20 -21 -20 -30 0 -9 -9 -22 -20 -30 -11 -8 -20
-22 -20 -32 0 -10 -4 -18 -10 -18 -5 0 -10 -7 -10 -16 0 -8 -18 -33 -40 -54
-22 -21 -40 -46 -40 -54 0 -9 -4 -16 -10 -16 -5 0 -10 -16 -10 -36 0 -27 7
-43 30 -64 36 -34 42 -80 10 -80 -11 0 -20 5 -20 10 0 6 -13 10 -30 10 -16 0
-30 5 -30 10 0 15 -49 12 -66 -4 -8 -8 -14 -26 -14 -40 0 -14 -4 -26 -10 -26
-5 0 -10 -9 -10 -20 0 -11 -4 -20 -10 -20 -5 0 -10 -18 -10 -40 0 -22 -4 -40
-10 -40 -5 0 -10 -9 -10 -20 0 -11 -4 -20 -10 -20 -5 0 -10 -9 -10 -20 0 -22
-16 -27 -22 -8 -7 21 -58 -38 -58 -67 0 -14 5 -25 10 -25 6 0 10 -13 10 -30 0
-16 5 -30 10 -30 6 0 10 -9 10 -20 0 -11 5 -20 10 -20 6 0 10 -9 10 -20 0 -11
7 -20 15 -20 15 0 65 -42 65 -55 0 -3 -9 -5 -20 -5 -11 0 -20 -7 -20 -15 0
-25 -46 -65 -75 -65 -18 0 -25 -5 -25 -20 0 -11 -4 -20 -10 -20 -5 0 -10 -22
-10 -50 0 -27 -4 -50 -10 -50 -5 0 -10 -12 -10 -26 0 -16 -12 -37 -30 -54 -26
-25 -30 -35 -30 -84 0 -31 5 -56 10 -56 6 0 10 -18 10 -40 0 -30 -4 -40 -16
-40 -8 0 -22 -6 -30 -14 -16 -17 -19 -66 -4 -66 6 0 10 -12 10 -26 0 -16 12
-37 30 -54 29 -27 42 -80 20 -80 -5 0 -10 -9 -10 -20 0 -17 7 -20 50 -20 l50
0 0 -40 c0 -22 5 -40 10 -40 6 0 10 -7 10 -15 0 -20 45 -65 65 -65 8 0 15 -4
15 -10 0 -5 9 -10 20 -10 11 0 20 -4 20 -10 0 -5 9 -10 20 -10 11 0 20 -4 20
-10 0 -5 8 -10 18 -10 10 0 24 -9 32 -20 8 -11 22 -20 32 -20 10 0 18 -4 18
-10 0 -5 9 -10 20 -10 12 0 20 -7 20 -16 0 -8 18 -33 40 -54 44 -42 48 -54 25
-77 -14 -14 -18 -13 -34 6 -10 12 -26 21 -35 21 -9 0 -16 5 -16 10 0 6 -22 10
-50 10 l-50 0 0 -50 c0 -27 5 -50 10 -50 6 0 10 -27 10 -60 0 -33 4 -60 10
-60 6 0 10 -22 10 -50 0 -27 5 -50 10 -50 6 0 10 -9 10 -20 0 -26 -12 -26 -30
0 -13 18 -26 20 -158 20 l-144 0 -28 -30 c-15 -16 -35 -30 -44 -30 -9 0 -16
-4 -16 -10 0 -5 -9 -10 -20 -10 -11 0 -20 -4 -20 -10 0 -5 -13 -10 -30 -10
-16 0 -30 -4 -30 -10 0 -5 -9 -10 -19 -10 -11 0 -22 -6 -24 -12 -4 -10 -8 -10
-15 1 -9 12 -13 11 -29 -4 -13 -13 -14 -20 -5 -23 7 -2 12 -23 12 -53 0 -27 5
-49 10 -49 6 0 10 -9 10 -20 0 -11 5 -20 10 -20 6 0 10 -13 10 -30 0 -23 -4
-30 -20 -30 -16 0 -20 -7 -20 -30 0 -16 -4 -30 -10 -30 -5 0 -10 -13 -10 -30
0 -16 5 -30 10 -30 6 0 10 -9 10 -20 0 -11 -4 -20 -10 -20 -5 0 -10 -13 -10
-30 0 -16 5 -30 10 -30 6 0 10 -11 10 -25 0 -29 -59 -95 -85 -95 -8 0 -15 -4
-15 -10 0 -5 -8 -10 -18 -10 -10 0 -24 -9 -32 -20 -8 -11 -21 -20 -30 -20 -9
0 -22 -9 -30 -20 -8 -12 -26 -20 -42 -20 -15 0 -28 -4 -28 -10 0 -5 -13 -10
-30 -10 -16 0 -30 -4 -30 -10 0 -5 -9 -10 -20 -10 -11 0 -20 -4 -20 -10 0 -5
-9 -10 -20 -10 -11 0 -20 -4 -20 -10 0 -5 -13 -10 -30 -10 -16 0 -30 -4 -30
-10 0 -5 -13 -10 -30 -10 -16 0 -30 5 -30 10 0 6 -9 10 -20 10 -11 0 -20 5
-20 10 0 6 -9 10 -20 10 -11 0 -20 5 -20 10 0 6 -8 10 -18 10 -10 0 -24 9 -32
20 -8 11 -22 20 -32 20 -10 0 -18 5 -18 10 0 6 -9 10 -20 10 -11 0 -20 5 -20
10 0 6 -13 10 -30 10 -16 0 -30 5 -30 10 0 6 -9 10 -20 10 -11 0 -20 5 -20 10
0 6 -9 10 -20 10 -11 0 -20 5 -20 10 0 6 -13 10 -30 10 -16 0 -30 5 -30 10 0
6 -12 10 -26 10 -14 0 -32 6 -40 14 -16 17 -19 46 -4 46 6 0 10 9 10 20 0 11
5 20 10 20 6 0 10 9 10 20 0 11 5 20 10 20 6 0 10 14 10 30 0 17 5 30 10 30 6
0 10 9 10 20 0 11 5 20 10 20 6 0 10 9 10 20 0 11 5 20 10 20 6 0 10 18 10 40
0 22 5 40 10 40 6 0 10 9 10 20 0 11 5 20 10 20 6 0 10 18 10 40 l0 40 40 0
c22 0 40 -4 40 -10 0 -5 14 -10 30 -10 23 0 30 -4 30 -20 0 -13 7 -20 20 -20
11 0 20 -4 20 -10 0 -5 18 -10 40 -10 22 0 40 5 40 10 0 6 9 10 20 10 11 0 20
5 20 10 0 6 9 10 20 10 11 0 20 5 20 10 0 6 8 10 18 10 10 0 24 9 32 20 8 11
20 20 28 20 17 0 42 25 42 42 0 8 9 20 20 28 11 8 20 21 20 30 0 9 9 22 20 30
11 8 20 22 20 32 0 11 7 18 20 18 13 0 20 7 20 20 0 11 5 20 10 20 6 0 10 9
10 20 0 17 7 20 40 20 22 0 40 5 40 10 0 6 18 10 40 10 22 0 40 5 40 10 0 6 9
10 20 10 11 0 20 5 20 10 0 6 5 10 10 10 6 0 10 -13 10 -30 0 -16 5 -30 10
-30 6 0 10 -40 10 -100 0 -60 -4 -100 -10 -100 -5 0 -10 -18 -10 -40 0 -44 4
-48 28 -23 12 12 13 18 4 21 -14 4 -16 42 -2 42 6 0 10 43 10 110 0 67 -4 110
-10 110 -5 0 -10 8 -10 18 0 10 -9 24 -20 32 -11 8 -20 20 -20 28 0 18 -66 82
-85 82 -8 0 -15 -4 -15 -10 0 -5 -9 -10 -20 -10 -11 0 -20 -4 -20 -10 0 -5 -9
-10 -20 -10 -11 0 -20 -4 -20 -10 0 -5 -4 -10 -10 -10 -5 0 -10 9 -10 20 0 11
-4 20 -10 20 -5 0 -10 7 -10 15 0 9 -11 27 -25 40 -24 25 -55 33 -55 15 0 -5
-9 -10 -20 -10 -11 0 -20 -4 -20 -10 0 -5 -9 -10 -20 -10 -11 0 -20 -4 -20
-10 0 -5 -9 -10 -20 -10 -11 0 -20 5 -20 10 0 18 -35 11 -50 -10 -8 -11 -20
-20 -28 -20 -12 0 -62 -43 -62 -55 0 -18 38 1 72 38 25 25 43 37 45 30 7 -21
77 -16 93 7 8 11 22 20 32 20 10 0 18 5 18 10 0 15 29 12 46 -4 8 -8 14 -24
14 -36 0 -25 51 -81 58 -62 2 7 12 12 23 12 10 0 19 5 19 10 0 6 9 10 20 10
11 0 20 5 20 10 0 18 31 10 55 -15 14 -13 25 -31 25 -40 0 -8 5 -15 10 -15 6
0 10 -4 10 -10 0 -5 -9 -10 -20 -10 -11 0 -20 -4 -20 -10 0 -5 -18 -10 -40
-10 -22 0 -40 -4 -40 -10 0 -5 -16 -10 -36 -10 -35 0 -64 -18 -64 -40 0 -7
-13 -25 -30 -40 -16 -15 -30 -34 -30 -42 0 -7 -9 -20 -20 -28 -11 -8 -20 -20
-20 -27 0 -19 -106 -123 -125 -123 -8 0 -15 -4 -15 -10 0 -5 -9 -10 -20 -10
-11 0 -20 -4 -20 -10 0 -5 -9 -10 -20 -10 -11 0 -20 -4 -20 -10 0 -5 -9 -10
-20 -10 -11 0 -20 5 -20 10 0 6 -13 10 -30 10 -23 0 -30 4 -30 20 0 16 -7 20
-30 20 -16 0 -30 5 -30 10 0 6 -30 10 -70 10 -63 0 -70 2 -70 20 0 13 -7 20
-20 20 -12 0 -20 7 -20 16 0 23 -25 44 -54 44 -14 0 -26 5 -26 10 0 6 -13 10
-30 10 -23 0 -30 4 -30 20 0 13 -7 20 -20 20 -16 0 -20 7 -20 30 0 17 5 30 10
30 6 0 10 8 10 18 0 10 9 24 20 32 16 12 20 26 20 72 0 32 4 58 10 58 6 0 10
14 10 30 0 35 10 38 30 10 11 -15 26 -20 60 -20 34 0 49 5 60 20 8 11 21 20
30 20 9 0 22 -9 30 -20 8 -11 21 -20 30 -20 9 0 22 -9 30 -20 9 -13 26 -20 48
-20 36 0 62 -19 62 -44 0 -9 8 -16 20 -16 11 0 20 7 20 15 0 25 -46 65 -75 65
-14 0 -25 5 -25 10 0 6 -13 10 -28 10 -16 0 -34 8 -42 20 -8 11 -22 20 -32 20
-10 0 -18 5 -18 10 0 6 -13 10 -30 10 -16 0 -30 -4 -30 -10 0 -5 -9 -10 -20
-10 -11 0 -20 -4 -20 -10 0 -18 -52 -10 -71 11 -16 19 -20 20 -34 6 -8 -9 -15
-27 -15 -41 0 -14 -4 -26 -10 -26 -6 0 -10 -26 -10 -58 0 -46 -4 -60 -20 -72
-11 -8 -20 -20 -20 -28 0 -18 -25 -42 -44 -42 -9 0 -16 8 -16 20 0 17 -7 20
-39 20 -22 0 -42 5 -44 13 -4 9 -8 8 -16 -3 -8 -12 -13 -11 -29 8 -11 12 -27
22 -36 22 -9 0 -16 5 -16 10 0 6 -13 10 -28 10 -16 0 -34 8 -42 20 -10 14 -26
20 -52 20 -28 0 -38 4 -38 15 0 25 -46 65 -75 65 -18 0 -25 5 -25 20 0 11 -4
20 -10 20 -5 0 -10 -4 -10 -10 0 -18 -55 -11 -70 10 -8 11 -26 20 -40 20 -14
0 -32 9 -40 20 -8 11 -22 20 -32 20 -10 0 -18 5 -18 10 0 6 -9 10 -20 10 -11
0 -20 5 -20 10 0 6 -8 10 -18 10 -10 0 -24 9 -32 20 -8 11 -22 20 -32 20 -15
0 -18 9 -18 60 0 33 4 60 10 60 6 0 10 37 10 90 0 53 4 90 10 90 6 0 10 9 10
20 0 13 -7 20 -20 20 -11 0 -20 5 -20 10 0 6 -9 10 -20 10 -17 0 -20 7 -20 40
0 22 5 40 10 40 6 0 10 14 10 30 0 17 5 30 10 30 6 0 10 14 10 30 0 17 -4 30
-10 30 -5 0 -10 5 -10 10 0 6 9 10 20 10 18 0 20 7 20 78 0 66 3 80 20 92 12
8 20 26 20 42 0 15 5 28 10 28 6 0 10 9 10 19 0 11 6 22 13 24 9 4 8 8 -3 16
-13 10 -13 12 0 22 11 8 12 12 3 16 -8 3 -13 24 -13 54 0 27 -4 49 -10 49 -6
0 -10 27 -10 60 0 33 4 60 10 60 6 0 10 18 10 40 0 33 3 40 20 40 15 0 20 7
20 26 0 16 12 37 30 54 17 15 30 35 30 44 0 9 8 16 20 16 11 0 20 5 20 10 0 6
9 10 20 10 11 0 20 5 20 10 0 6 9 10 20 10 13 0 20 7 20 20 0 11 -4 20 -10 20
-5 0 -10 14 -10 30 0 23 4 30 20 30 22 0 29 35 8 43 -8 2 -1 15 20 34 27 26
32 38 32 77 0 25 -4 46 -10 46 -5 0 -10 9 -10 20 0 16 7 20 36 20 42 0 64 19
64 54 0 19 5 26 20 26 15 0 20 7 20 28 0 16 8 34 20 42 14 10 20 26 20 51 0
21 5 39 12 41 16 6 -76 98 -97 98 -8 0 -15 5 -15 10 0 6 -9 10 -20 10 -13 0
-20 7 -20 20 0 11 -7 20 -15 20 -29 0 -65 47 -65 84 0 19 -6 37 -12 40 -10 5
-10 7 0 12 7 3 12 24 12 50 0 34 -6 51 -25 69 -24 25 -55 33 -55 15 0 -5 -4
-10 -10 -10 -5 0 -10 22 -10 48 0 36 -5 51 -20 62 -14 10 -20 26 -20 52 0 21
-4 38 -10 38 -15 0 -12 49 4 66 8 8 26 14 40 14 19 0 26 5 26 19 0 11 -6 21
-12 24 -9 3 -6 11 10 24 12 12 22 32 22 47 0 26 15 36 22 14 3 -7 19 3 42 25
l37 37 -40 39 c-47 45 -49 51 -21 51 11 0 20 5 20 10 0 6 14 10 30 10 23 0 30
4 30 20 0 16 7 20 30 20 17 0 30 5 30 10 0 6 12 10 26 10 29 0 54 21 54 44 0
9 5 16 10 16 6 0 10 9 10 20 0 11 5 20 10 20 6 0 10 9 10 20 0 11 -4 20 -10
20 -5 0 -10 9 -10 20 0 12 7 20 16 20 26 0 44 26 44 64 0 29 4 36 20 36 13 0
20 -7 20 -20 0 -13 7 -20 20 -20 11 0 20 -4 20 -10 0 -5 5 -10 10 -10 6 0 10
14 10 30 0 30 -14 41 -23 18 -2 -8 -8 -9 -13 -4 -5 5 -4 11 4 13 6 3 12 13 12
24 0 14 7 19 30 19 27 0 30 3 30 30 0 28 2 30 40 30 22 0 40 5 40 10 0 6 14
10 30 10 17 0 30 5 30 10 0 6 9 10 20 10 11 0 20 -4 20 -10 0 -5 14 -10 30
-10 17 0 30 5 30 10 0 6 27 10 60 10 33 0 60 4 60 10 0 6 9 10 20 10 11 0 20
5 20 10 0 6 9 10 19 10 11 0 22 6 25 13 5 10 7 10 12 0 3 -7 19 -13 35 -13 22
0 29 5 29 20 0 16 7 20 30 20 17 0 30 -4 30 -10 0 -5 9 -10 20 -10 11 0 20 5
20 10 0 6 -4 10 -10 10 -5 0 -10 5 -10 10 0 6 8 10 18 10 10 0 24 9 32 20 8
12 26 20 42 20 15 0 28 5 28 10 0 6 23 10 50 10 28 0 50 5 50 10 0 6 23 10 50
10 39 0 50 4 50 16 0 20 24 44 44 44 9 0 16 8 16 18 0 10 9 24 20 32 12 8 20
26 20 42 0 15 5 28 10 28 6 0 10 9 10 20 0 11 5 20 10 20 6 0 10 18 10 40 0
22 -4 40 -10 40 -16 0 -12 89 4 106 8 8 26 14 40 14 14 0 26 5 26 10 0 6 14
10 30 10 17 0 30 5 30 10 0 6 7 10 16 10 20 0 44 24 44 44 0 9 5 16 10 16 6 0
10 9 10 20 0 11 7 20 15 20 20 0 85 65 85 85 0 8 5 15 10 15 6 0 10 7 10 16 0
8 6 22 14 30 17 16 46 19 46 4 0 -5 14 -10 30 -10 17 0 30 -4 30 -10 0 -5 9
-10 20 -10 11 0 20 5 20 10 0 6 9 10 20 10 11 0 20 5 20 10 0 6 9 10 20 10 13
0 20 7 20 20 0 11 5 20 10 20 6 0 10 7 10 16 0 20 24 44 44 44 9 0 16 7 16 16
0 8 18 33 40 54 26 25 40 47 40 64 0 19 5 26 20 26 13 0 20 7 20 20 0 13 7 20
20 20 12 0 20 7 20 16 0 28 27 44 74 44 25 0 46 5 46 10 0 6 5 10 10 10 6 0
10 -13 10 -30z m-960 -326 c0 -15 -23 -44 -34 -44 -11 0 -6 31 7 45 16 19 27
19 27 -1z m-2120 -1034 c0 -5 14 -10 30 -10 17 0 30 -4 30 -10 0 -5 9 -10 20
-10 11 0 20 -4 20 -10 0 -5 7 -10 15 -10 22 0 73 -52 57 -58 -7 -2 -12 -12
-12 -23 0 -10 -4 -19 -10 -19 -5 0 -10 -9 -10 -20 0 -11 5 -20 10 -20 6 0 10
-13 10 -28 0 -16 8 -34 20 -42 30 -22 24 -30 -20 -30 -22 0 -40 -4 -40 -10 0
-5 -18 -10 -40 -10 -33 0 -40 3 -40 20 0 11 -4 20 -10 20 -5 0 -10 -4 -10 -10
0 -5 -9 -10 -20 -10 -11 0 -20 5 -20 10 0 6 -13 10 -30 10 -23 0 -30 4 -30 20
0 11 -7 20 -15 20 -18 0 -65 -44 -65 -60 0 -17 26 -40 44 -40 9 0 16 -8 16
-20 0 -18 7 -20 55 -20 46 0 60 -4 80 -25 14 -13 25 -36 25 -50 0 -21 5 -25
30 -25 17 0 30 5 30 10 0 6 9 10 20 10 16 0 20 -7 20 -30 0 -16 5 -30 10 -30
6 0 10 -9 10 -20 0 -11 -4 -20 -10 -20 -5 0 -10 5 -10 10 0 6 -9 10 -20 10
-11 0 -20 -4 -20 -10 0 -5 -13 -10 -30 -10 -21 0 -30 -5 -30 -16 0 -9 14 -29
30 -44 23 -21 30 -37 30 -64 0 -20 -4 -36 -10 -36 -5 0 -10 -18 -10 -39 0 -22
-5 -41 -12 -44 -9 -3 -6 -11 10 -24 12 -12 22 -32 22 -47 0 -14 5 -26 10 -26
6 0 10 -9 10 -20 0 -16 7 -20 30 -20 17 0 30 -4 30 -10 0 -5 9 -10 20 -10 11
0 20 -4 20 -10 0 -5 14 -10 30 -10 17 0 30 5 30 10 0 18 55 11 70 -10 11 -15
26 -20 62 -20 26 0 48 5 48 10 0 6 18 10 40 10 22 0 40 -4 40 -10 0 -14 38
-12 42 2 3 9 9 8 21 -4 18 -18 24 -88 7 -88 -5 0 -10 -9 -10 -20 0 -11 5 -20
10 -20 6 0 10 -16 10 -35 0 -37 35 -85 62 -85 8 0 20 -9 28 -20 8 -11 20 -20
27 -20 8 0 34 -20 58 -45 36 -36 45 -51 45 -80 0 -28 -4 -35 -19 -35 -11 0
-22 6 -25 13 -5 10 -7 10 -12 0 -7 -15 -64 -18 -64 -3 0 6 -9 10 -20 10 -11 0
-20 -4 -20 -10 0 -5 -16 -10 -36 -10 -47 0 -64 -19 -64 -71 0 -31 6 -47 23
-62 15 -13 18 -21 10 -24 -7 -3 -13 -13 -13 -23 0 -10 6 -21 13 -24 10 -5 10
-7 0 -12 -7 -3 -13 -12 -13 -21 0 -21 -32 -52 -38 -35 -2 6 -11 12 -21 12 -9
0 -23 9 -31 20 -8 11 -22 20 -32 20 -10 0 -18 5 -18 10 0 6 -18 10 -40 10 -22
0 -40 5 -40 10 0 6 -7 10 -15 10 -18 0 -65 -44 -65 -60 0 -17 -26 -40 -44 -40
-13 0 -16 -14 -16 -80 0 -47 -4 -80 -10 -80 -5 0 -10 -20 -10 -46 0 -42 -4
-49 -60 -104 -35 -35 -60 -67 -60 -80 0 -24 -82 -110 -105 -110 -8 0 -15 5
-15 10 0 6 -9 10 -20 10 -11 0 -20 5 -20 10 0 15 -77 12 -84 -2 -5 -10 -7 -10
-12 0 -3 6 -12 12 -21 12 -22 0 -43 26 -43 54 0 24 -4 26 -40 26 -22 0 -40 -4
-40 -10 0 -15 -29 -12 -46 4 -8 8 -14 26 -14 40 l0 26 -100 0 c-93 0 -100 -1
-100 -20 0 -11 -4 -20 -10 -20 -5 0 -10 -13 -10 -30 0 -23 -4 -30 -20 -30 -22
0 -29 35 -7 43 8 3 4 12 -13 27 -17 15 -21 24 -12 27 26 10 12 54 -33 98 -24
25 -49 45 -55 45 -14 0 -60 46 -60 60 0 7 -18 29 -40 50 -22 21 -40 44 -40 50
0 7 -13 25 -30 40 -16 15 -30 35 -30 44 0 9 -4 16 -10 16 -5 0 -10 9 -10 20 0
17 -7 20 -50 20 -38 0 -50 4 -50 15 0 18 -44 65 -60 65 -6 0 -18 -7 -26 -15
-14 -13 -11 -19 26 -55 38 -36 40 -41 26 -56 -14 -14 -18 -14 -31 0 -8 8 -15
22 -15 30 0 9 -4 16 -10 16 -5 0 -10 7 -10 16 0 25 -26 44 -60 44 -23 0 -40 9
-60 30 -15 17 -35 30 -44 30 -9 0 -16 8 -16 20 0 11 -4 20 -8 20 -4 0 -14 -9
-22 -20 -8 -11 -18 -20 -22 -20 -13 0 -9 38 4 42 16 6 -35 58 -57 58 -8 0 -15
9 -15 20 0 13 7 20 20 20 11 0 20 2 20 5 0 11 -49 55 -61 55 -6 0 -24 14 -39
30 -15 17 -33 30 -40 30 -16 0 -40 26 -40 44 0 9 -7 16 -15 16 -18 0 -125 104
-125 120 0 17 -26 40 -44 40 -9 0 -16 8 -16 18 0 10 -9 24 -20 32 -11 8 -20
20 -20 28 0 20 -26 42 -50 42 -12 0 -28 6 -36 14 -16 17 -19 66 -4 66 14 0 12
38 -2 43 -8 2 -9 8 -4 13 5 5 11 4 13 -3 3 -8 22 -13 44 -13 21 0 39 -4 39
-10 0 -6 30 -10 70 -10 l70 0 0 46 c0 52 16 74 54 74 14 0 26 5 26 10 0 6 13
10 28 10 16 0 34 8 42 20 15 21 50 28 50 10 0 -5 12 -10 26 -10 33 0 54 -21
54 -54 0 -19 5 -26 20 -26 11 0 20 5 20 10 0 6 9 10 20 10 11 0 20 -4 20 -10
0 -5 7 -10 15 -10 25 0 65 -46 65 -75 0 -20 5 -25 25 -25 29 0 75 -40 75 -65
0 -8 9 -15 20 -15 22 0 27 -16 8 -22 -16 -6 35 -58 57 -58 8 0 15 -4 15 -10 0
-5 18 -10 39 -10 22 0 42 -5 44 -12 4 -10 8 -9 17 2 9 11 13 12 17 3 10 -27
23 -11 23 27 0 22 5 40 10 40 6 0 10 18 10 40 0 38 2 40 30 40 17 0 30 5 30
10 0 6 5 10 10 10 6 0 10 -9 10 -20 0 -13 7 -20 18 -20 10 0 24 -9 32 -20 8
-11 20 -20 28 -20 18 0 62 46 62 65 0 8 9 15 20 15 11 0 20 5 20 10 0 6 13 10
29 10 16 0 32 6 35 13 5 10 7 10 12 0 7 -15 44 -17 44 -3 0 6 11 10 25 10 16
0 39 13 61 35 l35 36 -30 28 c-17 16 -31 36 -31 45 0 9 -4 16 -10 16 -5 0 -10
9 -10 20 0 13 7 20 20 20 13 0 20 7 20 20 0 13 7 20 20 20 11 0 20 5 20 10 0
6 -4 10 -10 10 -5 0 -10 14 -10 30 0 27 3 30 30 30 28 0 30 3 30 35 0 26 -8
44 -27 63 -17 17 -28 22 -31 14 -2 -8 -25 -12 -63 -12 -52 0 -59 2 -59 20 0
11 5 20 10 20 6 0 10 9 10 20 0 11 5 20 10 20 6 0 10 23 10 50 0 28 5 50 10
50 6 0 10 14 10 30 0 17 5 30 10 30 6 0 10 -4 10 -10 0 -5 9 -10 20 -10 11 0
20 -4 20 -10 0 -5 11 -10 25 -10 29 0 95 59 95 85 0 11 11 15 40 15 22 0 40 5
40 10 0 6 27 10 60 10 33 0 60 4 60 10 0 6 9 10 20 10 11 0 20 5 20 10 0 6 5
10 10 10 6 0 10 -4 10 -10z m3400 -1410 c0 -16 7 -20 36 -20 40 0 64 -19 64
-50 0 -24 42 -70 65 -70 8 0 15 -4 15 -10 0 -18 31 -10 55 15 25 24 35 75 15
75 -5 0 -10 5 -10 10 0 6 27 10 60 10 33 0 60 -4 60 -10 0 -5 9 -10 20 -10 16
0 20 -7 20 -36 0 -28 8 -43 40 -74 22 -21 40 -44 40 -50 0 -6 18 -29 40 -50
30 -29 40 -46 40 -70 0 -34 -19 -60 -44 -60 -11 0 -16 -9 -16 -30 0 -16 -4
-30 -10 -30 -6 0 -10 -50 -10 -130 0 -80 -4 -130 -10 -130 -5 0 -10 -9 -10
-20 0 -11 5 -20 10 -20 6 0 10 -9 10 -20 0 -11 5 -20 10 -20 6 0 10 -9 10 -20
0 -11 5 -20 10 -20 6 0 10 -13 10 -30 0 -23 4 -30 20 -30 13 0 20 -7 20 -20 0
-13 -7 -20 -20 -20 -11 0 -20 5 -20 10 0 6 -22 10 -48 10 -36 0 -51 5 -62 20
-8 12 -26 20 -42 20 -24 0 -28 -4 -28 -30 0 -23 -4 -30 -20 -30 -11 0 -20 -4
-20 -10 0 -5 -9 -10 -20 -10 -11 0 -20 5 -20 10 0 6 -13 10 -30 10 -16 0 -30
5 -30 10 0 6 -16 10 -36 10 -35 0 -64 -18 -64 -40 0 -23 -30 -40 -70 -40 -43
0 -70 -17 -70 -44 0 -9 -4 -16 -10 -16 -5 0 -10 -9 -10 -20 0 -11 -4 -20 -10
-20 -14 0 -12 -37 3 -43 9 -4 8 -8 -3 -16 -13 -10 -13 -12 0 -22 11 -8 12 -12
3 -16 -7 -2 -13 -22 -13 -43 0 -21 -6 -41 -12 -44 -10 -5 -10 -7 0 -12 6 -3
12 -17 12 -31 0 -14 10 -34 22 -45 18 -15 20 -21 8 -28 -10 -6 -4 -17 28 -48
23 -22 42 -48 42 -56 0 -9 5 -16 10 -16 6 0 10 -9 10 -20 0 -16 7 -20 30 -20
17 0 30 -4 30 -10 0 -5 14 -10 30 -10 17 0 30 -4 30 -10 0 -5 7 -10 16 -10 8
0 22 -6 30 -14 16 -17 19 -46 4 -46 -5 0 -10 -16 -10 -36 0 -27 -7 -43 -30
-64 -37 -34 -41 -87 -10 -110 12 -8 20 -26 20 -42 0 -15 5 -28 10 -28 6 0 10
-13 10 -30 0 -27 3 -30 30 -30 36 0 37 -6 8 -33 -16 -13 -19 -21 -10 -24 7 -3
12 -22 12 -44 0 -21 5 -39 10 -39 6 0 10 -9 10 -20 0 -11 5 -20 10 -20 6 0 10
-13 10 -30 0 -16 -4 -30 -10 -30 -6 0 -10 -39 -10 -98 0 -86 2 -99 20 -112 38
-27 20 -110 -24 -110 -9 0 -16 -7 -16 -16 0 -9 -13 -29 -30 -44 -16 -15 -30
-34 -30 -42 0 -7 -9 -20 -20 -28 -11 -8 -20 -22 -20 -32 0 -10 -4 -18 -10 -18
-5 0 -10 -8 -10 -18 0 -10 -9 -24 -20 -32 -11 -8 -20 -21 -20 -28 0 -8 -13
-27 -30 -42 -16 -15 -30 -35 -30 -44 0 -9 -4 -16 -10 -16 -20 0 -9 -33 20 -60
17 -15 30 -35 30 -44 0 -9 8 -16 20 -16 16 0 20 -7 20 -30 0 -16 -4 -30 -10
-30 -15 0 -12 -29 4 -46 8 -8 22 -14 30 -14 11 0 16 -9 16 -30 0 -16 5 -30 10
-30 6 0 10 -22 10 -50 0 -43 3 -50 20 -50 11 0 20 -4 20 -10 0 -5 9 -10 20
-10 11 0 20 -4 20 -10 0 -5 9 -10 20 -10 11 0 20 -4 20 -10 0 -5 12 -10 26
-10 29 0 54 -21 54 -44 0 -9 -7 -16 -15 -16 -18 0 -85 -64 -85 -80 0 -6 -11
-22 -25 -36 l-26 -26 -18 21 c-19 22 -91 31 -91 11 0 -5 -17 -10 -38 -10 -26
0 -42 -6 -52 -20 -8 -12 -26 -20 -42 -20 -15 0 -28 -4 -28 -10 0 -5 -13 -10
-30 -10 -16 0 -30 -4 -30 -10 0 -5 -22 -10 -50 -10 l-50 0 0 40 c0 38 -2 40
-30 40 -23 0 -30 4 -30 20 0 13 -7 20 -20 20 -13 0 -20 7 -20 20 0 13 -7 20
-20 20 -11 0 -20 5 -20 10 0 6 -9 10 -19 10 -11 0 -22 6 -25 13 -5 10 -7 10
-12 0 -7 -15 -64 -18 -64 -3 0 6 -18 10 -40 10 -22 0 -40 -4 -40 -10 0 -5 -13
-10 -30 -10 -16 0 -30 -4 -30 -10 0 -15 -29 -12 -46 4 -16 17 -19 66 -4 66 6
0 10 18 10 39 0 22 5 41 12 43 17 6 -14 38 -36 38 -9 0 -16 5 -16 10 0 6 -22
10 -50 10 -27 0 -50 5 -50 10 0 6 -9 10 -20 10 -11 0 -20 5 -20 10 0 6 -9 10
-20 10 -11 0 -20 5 -20 10 0 6 -27 10 -60 10 -33 0 -60 4 -60 10 0 6 -18 10
-40 10 -22 0 -40 5 -40 10 0 6 -9 10 -20 10 -11 0 -20 5 -20 10 0 6 -13 10
-30 10 -16 0 -30 -4 -30 -10 0 -5 -13 -10 -30 -10 -16 0 -30 5 -30 10 0 6 8
10 18 10 10 0 24 9 32 20 8 11 25 20 38 20 15 0 41 18 72 50 27 28 56 50 64
50 9 0 16 5 16 10 0 6 -4 10 -10 10 -5 0 -10 9 -10 20 0 11 -4 20 -10 20 -5 0
-10 14 -10 30 0 17 5 30 10 30 6 0 10 9 10 20 0 11 -4 20 -10 20 -5 0 -10 9
-10 20 0 11 5 20 10 20 6 0 10 14 10 30 0 17 5 30 10 30 6 0 10 -4 10 -10 0
-5 5 -10 10 -10 6 0 10 23 10 50 0 28 -4 50 -10 50 -5 0 -10 9 -10 20 0 11 -4
20 -10 20 -5 0 -10 14 -10 30 0 17 5 30 10 30 6 0 10 14 10 30 0 23 4 30 20
30 11 0 20 5 20 10 0 6 14 10 30 10 17 0 30 5 30 10 0 6 9 10 20 10 11 0 20 5
20 10 0 6 14 10 30 10 21 0 30 5 30 16 0 38 24 44 171 44 132 0 143 -1 160
-21 16 -19 20 -20 34 -6 17 17 20 47 5 47 -5 0 -10 23 -10 50 0 28 -4 50 -10
50 -6 0 -10 27 -10 60 0 33 -4 60 -10 60 -5 0 -10 18 -10 40 0 39 1 40 36 40
27 0 43 -7 64 -30 34 -36 80 -42 80 -10 0 11 5 20 10 20 22 0 8 34 -30 70 -22
21 -40 44 -40 50 0 17 -26 40 -44 40 -9 0 -16 5 -16 10 0 6 -8 10 -18 10 -10
0 -24 9 -32 20 -8 11 -22 20 -32 20 -10 0 -18 5 -18 10 0 6 -9 10 -20 10 -11
0 -20 5 -20 10 0 6 -9 10 -20 10 -11 0 -20 5 -20 10 0 6 -7 10 -16 10 -20 0
-44 24 -44 44 0 9 -4 16 -10 16 -5 0 -10 14 -10 30 0 17 5 30 10 30 6 0 10 9
10 20 0 11 5 20 10 20 6 0 10 9 10 20 0 22 16 27 22 8 9 -25 38 20 38 56 0 20
5 36 10 36 6 0 10 9 10 20 0 27 7 25 40 -10 15 -16 35 -30 44 -30 9 0 16 -4
16 -10 0 -5 5 -10 10 -10 6 0 10 9 10 20 0 13 7 20 20 20 11 0 20 5 20 10 0 6
37 10 90 10 53 0 90 -4 90 -10 0 -5 9 -10 20 -10 11 0 20 5 20 10 0 6 9 10 20
10 11 0 20 5 20 10 0 6 14 10 30 10 17 0 30 5 30 10 0 6 9 10 20 10 11 0 20 5
20 10 0 6 -9 10 -20 10 -11 0 -20 -4 -20 -10 0 -5 -13 -10 -30 -10 -16 0 -30
-4 -30 -10 0 -5 -9 -10 -20 -10 -11 0 -20 -4 -20 -10 0 -5 -9 -10 -20 -10 -13
0 -20 7 -20 20 0 11 -4 20 -10 20 -5 0 -10 -4 -10 -10 0 -6 -33 -10 -79 -10
-54 0 -81 -4 -84 -12 -4 -10 -8 -9 -16 2 -8 12 -13 11 -29 -8 -26 -29 -39 -28
-72 8 -32 35 -60 39 -60 10 0 -11 -4 -20 -10 -20 -5 0 -10 -22 -10 -50 0 -46
-13 -67 -22 -38 -5 15 -38 -13 -38 -32 0 -19 -33 -47 -38 -32 -2 7 -21 12 -43
12 -21 0 -39 5 -39 10 0 6 5 10 10 10 22 0 9 53 -20 80 -18 17 -30 38 -30 54
0 14 -4 26 -10 26 -20 0 -9 33 20 60 17 15 30 35 30 44 0 9 5 16 10 16 18 0
11 35 -10 50 -31 23 -27 76 10 110 18 17 30 38 30 54 0 14 5 26 10 26 6 0 10
13 10 29 0 16 6 32 13 35 10 5 10 7 0 12 -33 15 -1 64 41 64 17 0 26 5 26 16
0 8 18 33 41 55 l40 39 -52 51 c-40 39 -49 53 -38 59 11 7 9 13 -9 28 -12 11
-22 31 -22 45 0 14 -6 28 -12 31 -10 5 -10 7 0 12 6 3 12 14 12 25 0 21 16 26
22 7 6 -17 38 14 38 36 0 9 5 16 10 16 6 0 10 9 10 20 0 11 5 20 10 20 6 0 10
18 10 40 0 22 5 40 10 40 6 0 10 9 10 20 0 11 5 20 10 20 6 0 10 7 10 16 0 22
32 53 38 36 2 -6 16 -12 31 -12 15 0 33 -9 41 -20 31 -43 70 -13 70 54 0 39
-3 46 -20 46 -13 0 -20 7 -20 20 0 11 -4 20 -10 20 -5 0 -10 12 -10 26 0 17
14 39 40 64 22 21 40 46 40 54 0 9 5 16 10 16 6 0 10 7 10 16 0 8 6 22 14 30
16 16 86 19 86 4 0 -5 9 -10 20 -10 16 0 20 -7 20 -36 0 -35 18 -64 40 -64 20
0 40 28 40 54 0 27 15 36 22 14 3 -8 15 -2 33 17 19 18 25 30 17 33 -19 6 -14
22 8 22 13 0 20 -7 20 -20z m-5380 -10 c0 -5 9 -10 20 -10 11 0 20 -4 20 -10
0 -5 9 -10 20 -10 11 0 20 -4 20 -10 0 -5 7 -10 16 -10 8 0 37 -22 64 -50 27
-27 56 -50 64 -50 9 0 16 -4 16 -10 0 -5 7 -10 16 -10 8 0 22 -6 30 -14 21
-21 17 -46 -6 -46 -12 0 -20 -7 -20 -16 0 -9 -9 -25 -21 -35 -19 -16 -20 -20
-6 -34 9 -8 23 -15 31 -15 9 0 16 -4 16 -10 0 -5 9 -10 20 -10 11 0 20 -4 20
-10 0 -5 9 -10 20 -10 11 0 20 -4 20 -10 0 -5 8 -10 18 -10 10 0 24 -9 32 -20
8 -12 26 -20 42 -20 19 0 28 -5 28 -15 0 -20 45 -65 65 -65 8 0 15 -4 15 -10
0 -5 9 -10 20 -10 11 0 20 -4 20 -10 0 -5 12 -10 26 -10 14 0 32 -6 40 -14 18
-19 18 -26 -2 -26 -20 0 -44 -24 -44 -44 0 -9 -4 -16 -10 -16 -5 0 -10 -12
-10 -26 0 -26 20 -54 40 -54 19 0 100 -89 100 -111 0 -11 14 -34 30 -49 17
-15 30 -33 30 -40 0 -18 27 -40 50 -40 22 0 130 -101 130 -123 0 -7 9 -19 20
-27 11 -8 20 -22 20 -32 0 -10 5 -18 10 -18 6 0 10 -9 10 -20 0 -11 5 -20 10
-20 6 0 10 -17 10 -38 0 -26 6 -42 20 -52 11 -8 20 -20 20 -27 0 -8 25 -38 56
-69 55 -56 55 -56 73 -35 10 12 26 21 35 21 9 0 16 8 16 20 0 11 5 20 10 20 6
0 10 -4 10 -10 0 -5 9 -10 20 -10 11 0 20 -4 20 -10 0 -5 9 -10 20 -10 11 0
20 -4 20 -10 0 -5 -4 -10 -10 -10 -18 0 -10 -31 15 -55 13 -14 31 -25 39 -25
8 0 16 -6 19 -12 3 -9 11 -5 25 11 19 21 23 22 37 8 17 -17 20 -47 5 -47 -5 0
-10 -7 -10 -16 0 -18 23 -44 40 -44 14 0 60 -46 60 -60 0 -24 30 -40 74 -40
l46 0 0 -40 c0 -33 -3 -40 -20 -40 -11 0 -20 -4 -20 -10 0 -5 -4 -10 -10 -10
-5 0 -10 9 -10 20 0 26 -8 25 -32 -2 -16 -19 -21 -20 -29 -8 -8 13 -10 13 -20
0 -8 -11 -12 -12 -16 -2 -2 6 -11 12 -19 12 -20 0 -64 -45 -64 -65 0 -8 -9
-15 -20 -15 -12 0 -20 7 -20 16 0 8 -6 22 -14 30 -17 16 -66 19 -66 4 0 -5
-12 -10 -26 -10 -26 0 -54 20 -54 40 0 6 -23 33 -50 60 -28 27 -50 54 -50 60
0 6 -18 29 -40 50 -49 47 -52 70 -10 70 36 0 41 27 10 50 -11 8 -20 20 -20 27
0 19 -106 123 -125 123 -8 0 -15 9 -15 20 0 13 -7 20 -18 20 -10 0 -24 9 -32
20 -8 11 -20 20 -28 20 -15 0 -82 65 -82 80 0 16 -108 120 -125 120 -8 0 -15
5 -15 10 0 6 -21 10 -46 10 -46 0 -74 16 -74 42 0 8 -9 20 -20 28 -11 8 -20
22 -20 32 0 10 -4 18 -10 18 -5 0 -10 8 -10 18 0 10 -9 24 -20 32 -11 8 -20
22 -20 32 0 10 -4 18 -10 18 -5 0 -10 9 -10 20 0 13 -7 20 -20 20 -11 0 -20 5
-20 10 0 6 -7 10 -15 10 -9 0 -51 36 -95 80 -44 44 -84 80 -91 80 -6 0 -25 15
-42 33 -19 20 -32 27 -34 20 -5 -15 -43 -18 -43 -4 0 5 5 11 12 13 16 6 -35
58 -57 58 -8 0 -15 5 -15 10 0 6 -9 10 -19 10 -11 0 -22 6 -24 13 -4 9 -8 9
-15 -2 -8 -11 -20 -4 -60 37 -28 29 -58 52 -66 52 -9 0 -16 5 -16 10 0 6 -9
10 -20 10 -11 0 -20 7 -20 15 0 20 45 65 65 65 8 0 15 9 15 20 0 11 5 20 10
20 6 0 10 9 10 20 0 11 5 20 10 20 6 0 10 9 10 20 0 11 5 20 10 20 6 0 10 18
10 40 0 22 -4 40 -10 40 -5 0 -10 14 -10 30 0 28 2 30 40 30 22 0 40 5 40 10
0 6 5 10 10 10 6 0 10 -4 10 -10z m2720 -20 c0 -5 23 -10 50 -10 28 0 50 -4
50 -10 0 -5 -4 -10 -10 -10 -5 0 -10 -8 -10 -18 0 -10 -9 -24 -20 -32 -11 -8
-20 -22 -20 -32 0 -11 -7 -18 -20 -18 -11 0 -20 -4 -20 -10 0 -5 -13 -10 -30
-10 -16 0 -30 -4 -30 -10 0 -5 -4 -10 -10 -10 -5 0 -10 9 -10 20 0 11 -4 20
-10 20 -5 0 -10 9 -10 20 0 11 -4 20 -10 20 -5 0 -10 18 -10 40 l0 40 40 0
c22 0 40 5 40 10 0 6 9 10 20 10 11 0 20 -4 20 -10z m2526 -24 c19 -20 18 -26
-6 -26 -13 0 -20 7 -20 20 0 24 6 25 26 6z m-4320 -80 c19 -20 18 -26 -6 -26
-13 0 -20 7 -20 20 0 24 6 25 26 6z m34 -56 c0 -5 18 -10 40 -10 33 0 40 -3
40 -20 0 -11 5 -20 10 -20 6 0 10 -7 10 -16 0 -9 14 -29 30 -44 17 -15 30 -35
30 -44 0 -9 7 -16 15 -16 20 0 65 -45 65 -65 0 -8 5 -15 10 -15 6 0 10 -7 10
-16 0 -20 24 -44 44 -44 9 0 16 -4 16 -10 0 -5 9 -10 20 -10 12 0 20 -7 20
-16 0 -9 10 -26 23 -37 15 -13 18 -21 10 -24 -15 -5 -18 -63 -3 -63 6 0 10
-13 10 -30 0 -16 5 -30 10 -30 6 0 10 -13 10 -30 0 -23 4 -30 20 -30 16 0 20
7 20 30 0 17 5 30 10 30 6 0 10 12 10 26 0 43 21 54 104 54 l76 0 0 -30 c0
-23 4 -30 20 -30 11 0 20 -4 20 -10 0 -5 9 -10 20 -10 11 0 20 5 20 10 0 6 14
10 30 10 20 0 30 -5 30 -15 0 -20 65 -85 85 -85 8 0 15 5 15 10 0 6 14 10 30
10 17 0 30 -4 30 -10 0 -5 9 -10 20 -10 11 0 20 -4 20 -10 0 -18 55 -11 70 10
8 11 22 20 32 20 11 0 18 7 18 18 0 10 9 24 20 32 11 8 20 20 20 28 0 7 27 40
60 72 56 55 60 62 60 104 0 26 5 46 10 46 6 0 10 27 10 60 0 33 4 60 10 60 6
0 10 8 10 18 0 10 9 24 20 32 12 8 20 26 20 42 0 21 5 28 19 28 11 0 22 6 25
13 5 10 7 10 12 0 3 -7 19 -13 35 -13 16 0 29 -4 29 -10 0 -5 9 -10 20 -10 11
0 20 -4 20 -10 0 -5 8 -10 18 -10 10 0 24 -9 32 -20 19 -26 70 -28 70 -2 0 10
9 24 20 32 11 8 20 22 20 32 0 10 5 18 10 18 6 0 10 -9 10 -20 0 -11 5 -20 10
-20 6 0 10 -13 10 -30 0 -16 -4 -30 -10 -30 -5 0 -10 -9 -10 -20 0 -13 -7 -20
-20 -20 -13 0 -20 -7 -20 -20 0 -11 -4 -20 -10 -20 -5 0 -10 -9 -10 -20 0 -11
-4 -20 -10 -20 -18 0 -11 -32 11 -51 19 -16 20 -20 6 -34 -9 -8 -23 -15 -31
-15 -9 0 -16 -4 -16 -10 0 -5 -13 -10 -30 -10 -22 0 -30 -5 -30 -18 0 -10 -9
-24 -20 -32 -11 -8 -20 -22 -20 -32 0 -10 -4 -18 -10 -18 -5 0 -10 -9 -10 -20
0 -12 -7 -20 -16 -20 -8 0 -22 -6 -30 -14 -16 -17 -19 -46 -4 -46 6 0 10 -9
10 -20 0 -11 -4 -20 -10 -20 -6 0 -10 -27 -10 -60 0 -33 4 -60 10 -60 6 0 10
-22 10 -50 0 -27 5 -50 10 -50 6 0 10 -4 10 -10 0 -5 -9 -10 -20 -10 -11 0
-20 -4 -20 -10 0 -5 5 -10 10 -10 6 0 10 -13 10 -30 0 -16 -4 -30 -10 -30 -5
0 -10 -13 -10 -30 0 -23 -4 -30 -20 -30 -18 0 -20 -7 -20 -80 0 -73 -2 -80
-20 -80 -18 0 -20 -7 -20 -80 0 -47 -4 -80 -10 -80 -5 0 -10 -16 -10 -36 0
-27 7 -43 30 -64 17 -15 30 -31 30 -34 0 -3 -18 -6 -40 -6 -22 0 -40 5 -40 10
0 6 -32 10 -76 10 -66 0 -79 -3 -95 -22 l-19 -21 -19 21 c-24 28 -71 30 -71 3
0 -11 -6 -21 -12 -24 -9 -3 -6 -11 10 -24 36 -33 29 -53 -18 -53 -22 0 -40 -4
-40 -10 0 -5 -13 -10 -30 -10 -16 0 -30 -4 -30 -10 0 -5 -18 -10 -40 -10 -22
0 -40 -4 -40 -10 0 -5 -9 -10 -20 -10 -16 0 -20 7 -20 36 0 48 -19 64 -74 64
-37 0 -46 3 -46 18 0 10 -9 24 -20 32 -11 8 -20 22 -20 32 0 13 -8 18 -30 18
-23 0 -30 4 -30 20 0 11 5 20 10 20 18 0 11 35 -10 50 -21 15 -28 50 -10 50 6
0 10 7 10 16 0 9 14 29 31 45 27 26 29 30 16 44 -9 8 -22 15 -29 15 -8 0 -20
9 -28 20 -8 11 -22 20 -32 20 -11 0 -18 7 -18 18 0 10 -9 24 -20 32 -11 8 -20
22 -20 32 0 16 10 18 90 18 75 0 90 3 90 16 0 20 24 44 44 44 19 0 21 17 4 22
-28 10 21 38 64 38 32 0 47 5 58 20 15 21 50 28 50 10 0 -5 14 -10 30 -10 17
0 30 5 30 10 0 6 9 10 20 10 11 0 20 -4 20 -10 0 -5 9 -10 20 -10 11 0 20 5
20 10 0 6 8 10 18 10 10 0 24 9 32 20 8 11 20 20 28 20 16 0 62 45 62 60 0 20
28 40 54 40 19 0 26 5 26 20 0 11 5 20 10 20 6 0 10 7 10 15 0 20 65 85 85 85
8 0 15 5 15 10 0 6 9 10 20 10 11 0 20 5 20 10 0 6 9 10 20 10 13 0 20 7 20
20 0 11 -4 20 -10 20 -5 0 -10 14 -10 30 0 17 -4 30 -10 30 -5 0 -10 18 -10
40 0 22 -4 40 -10 40 -5 0 -10 18 -10 40 0 22 -4 40 -10 40 -5 0 -10 23 -10
50 0 28 -4 50 -10 50 -5 0 -10 -22 -10 -50 0 -27 5 -50 10 -50 6 0 10 -18 10
-40 0 -22 5 -40 10 -40 6 0 10 -18 10 -40 0 -22 5 -40 10 -40 6 0 10 -13 10
-29 0 -16 6 -31 12 -33 20 -7 -17 -38 -44 -38 -13 0 -30 -9 -38 -20 -8 -11
-22 -20 -32 -20 -10 0 -18 -7 -18 -16 0 -9 -13 -29 -30 -44 -16 -15 -30 -35
-30 -44 0 -9 -8 -16 -20 -16 -11 0 -20 -4 -20 -10 0 -5 -9 -10 -20 -10 -13 0
-20 -7 -20 -20 0 -11 -4 -20 -10 -20 -5 0 -10 -9 -10 -20 0 -13 -7 -20 -18
-20 -10 0 -24 -9 -32 -20 -8 -11 -22 -20 -31 -20 -10 0 -20 -6 -23 -12 -5 -10
-7 -10 -12 0 -7 14 -64 17 -64 2 0 -5 -9 -10 -20 -10 -11 0 -20 5 -20 10 0 18
-55 11 -70 -10 -15 -21 -50 -28 -50 -10 0 18 -35 11 -50 -10 -8 -11 -22 -20
-32 -20 -11 0 -18 -7 -18 -18 0 -10 -9 -24 -20 -32 -11 -8 -20 -22 -20 -32 0
-16 -10 -18 -90 -18 l-90 0 0 -30 c0 -16 5 -30 10 -30 6 0 10 -7 10 -15 0 -19
44 -65 62 -65 8 0 20 -9 28 -20 8 -11 22 -20 32 -20 26 0 23 -7 -22 -50 -22
-21 -40 -48 -40 -60 0 -26 -31 -61 -38 -42 -2 6 -10 12 -19 12 -32 0 -59 53
-31 62 15 5 -13 38 -32 38 -7 0 -25 14 -40 30 -32 34 -40 37 -40 15 0 -9 -11
-27 -25 -40 -24 -25 -55 -33 -55 -15 0 6 -7 10 -15 10 -19 0 -65 44 -65 62 0
8 -9 20 -20 28 -14 10 -20 26 -20 52 0 21 -4 38 -10 38 -5 0 -10 9 -10 20 0
11 -4 20 -10 20 -5 0 -10 9 -10 20 0 11 -4 20 -10 20 -5 0 -10 7 -10 15 0 17
-144 165 -161 165 -14 0 -39 26 -39 40 0 7 -13 25 -30 40 -16 15 -30 33 -30
39 0 7 -31 43 -70 81 -38 38 -70 74 -70 80 0 16 47 60 65 60 8 0 15 7 15 15 0
20 -45 65 -65 65 -8 0 -15 5 -15 10 0 6 -13 10 -30 10 -16 0 -30 5 -30 10 0 6
-9 10 -20 10 -11 0 -20 7 -20 15 0 20 -45 65 -65 65 -8 0 -15 5 -15 10 0 6 -8
10 -18 10 -10 0 -24 9 -32 20 -8 11 -26 20 -40 20 -14 0 -32 9 -40 20 -8 11
-22 20 -32 20 -10 0 -18 7 -18 15 0 21 72 93 78 77 2 -7 11 -12 21 -12 9 0 23
-9 31 -20 8 -11 21 -20 28 -20 8 0 27 -13 42 -30 15 -16 35 -30 44 -30 9 0 16
-4 16 -10 0 -5 9 -10 20 -10 11 0 20 -4 20 -10 0 -5 9 -10 20 -10 11 0 20 -4
20 -10 0 -5 7 -10 16 -10 9 0 29 -13 44 -30 15 -16 35 -30 44 -30 9 0 16 -4
16 -10 0 -5 9 -10 20 -10 11 0 20 -4 20 -10 0 -15 70 -12 86 4 8 8 14 22 14
30 0 9 5 16 10 16 6 0 10 18 10 40 0 22 5 40 10 40 6 0 10 14 10 30 0 17 5 30
10 30 6 0 10 12 10 26 0 15 10 35 23 47 15 13 18 21 10 24 -15 6 -17 23 -3 23
6 0 10 -4 10 -10z m186 -1465 c14 -13 14 -17 0 -31 -15 -14 -17 -14 -32 0 -12
13 -13 18 -2 30 16 19 16 19 34 1z m894 -5 c0 -16 7 -20 30 -20 23 0 30 4 30
20 0 18 7 20 80 20 47 0 80 -4 80 -10 0 -5 18 -10 40 -10 l40 0 0 -70 c0 -40
-4 -70 -10 -70 -6 0 -10 -33 -10 -80 l0 -80 28 0 c16 0 34 -8 42 -20 8 -11 22
-20 32 -20 10 0 18 -4 18 -10 0 -5 9 -10 20 -10 11 0 20 -4 20 -10 0 -5 8 -10
18 -10 10 0 24 -9 32 -20 8 -11 22 -20 32 -20 10 0 18 -4 18 -10 0 -5 9 -10
20 -10 11 0 20 -4 20 -10 0 -5 9 -10 19 -10 11 0 22 -6 24 -12 4 -10 8 -9 17
2 9 11 13 12 17 3 2 -7 13 -13 24 -13 10 0 19 -4 19 -10 0 -5 9 -10 20 -10 16
0 20 -7 20 -30 0 -29 1 -30 48 -30 36 0 51 -5 62 -20 8 -12 26 -20 42 -20 15
0 28 -4 28 -10 0 -5 8 -10 18 -10 10 0 24 -9 32 -20 11 -15 26 -20 62 -20 47
0 48 -1 48 -30 0 -30 14 -40 24 -17 5 10 7 10 12 0 3 -7 12 -13 21 -13 8 0 28
-13 43 -30 15 -16 35 -30 44 -30 9 0 16 -4 16 -10 0 -5 11 -10 25 -10 17 0 43
-17 80 -55 46 -45 55 -60 55 -90 0 -19 -4 -35 -10 -35 -5 0 -10 -9 -10 -20 0
-11 -4 -20 -10 -20 -5 0 -10 -13 -10 -30 0 -16 -4 -30 -10 -30 -5 0 -10 -13
-10 -30 0 -16 -4 -30 -10 -30 -5 0 -10 -9 -10 -20 0 -11 -4 -20 -10 -20 -5 0
-10 -13 -10 -30 0 -16 -4 -30 -10 -30 -5 0 -10 -8 -10 -18 0 -10 -9 -24 -20
-32 -15 -11 -20 -26 -20 -60 0 -34 -5 -49 -20 -60 -11 -8 -20 -20 -20 -28 0
-7 -23 -36 -52 -64 -41 -40 -48 -52 -37 -60 11 -7 11 -11 2 -15 -7 -2 -13 -12
-13 -22 0 -9 -9 -23 -20 -31 -11 -8 -20 -21 -20 -28 0 -8 -13 -27 -30 -42 -16
-15 -30 -35 -30 -44 0 -9 -4 -16 -10 -16 -5 0 -10 -7 -10 -16 0 -9 -13 -29
-30 -44 -16 -15 -30 -35 -30 -44 0 -9 -4 -16 -10 -16 -5 0 -10 -7 -10 -16 0
-15 -23 -44 -34 -44 -3 0 -6 9 -6 20 0 11 -4 20 -8 20 -4 0 -14 -9 -22 -20 -8
-11 -25 -20 -38 -20 -14 0 -38 -16 -62 -40 -21 -22 -45 -40 -52 -40 -7 0 -20
-9 -28 -20 -18 -25 -70 -28 -70 -4 0 9 -13 29 -30 44 -16 15 -30 33 -30 40 0
7 -13 25 -30 40 -16 15 -30 33 -30 40 0 7 -13 25 -30 40 -16 15 -30 34 -30 42
0 7 -9 20 -20 28 -11 8 -20 21 -20 28 0 7 -18 31 -40 52 -22 21 -40 46 -40 54
0 9 -8 16 -18 16 -10 0 -24 9 -32 20 -8 11 -22 20 -32 20 -10 0 -18 5 -18 10
0 6 -9 10 -20 10 -11 0 -20 5 -20 10 0 6 -7 10 -16 10 -8 0 -23 7 -31 16 -13
13 -14 17 -3 24 10 6 7 14 -13 34 -14 14 -33 26 -42 26 -8 0 -15 5 -15 10 0 6
-7 10 -16 10 -9 0 -29 14 -44 30 -15 17 -35 30 -44 30 -9 0 -16 5 -16 10 0 6
-8 10 -18 10 -10 0 -24 9 -32 20 -12 16 -26 20 -72 20 l-58 0 0 -40 c0 -22 5
-40 10 -40 6 0 10 -13 10 -30 0 -16 -4 -30 -10 -30 -5 0 -10 -18 -10 -40 0
-22 -4 -40 -10 -40 -5 0 -10 -18 -10 -40 0 -22 -4 -40 -10 -40 -5 0 -10 -16
-10 -36 0 -19 -7 -42 -15 -50 -13 -14 -19 -11 -54 25 -22 23 -45 41 -51 41
-17 0 -40 26 -40 44 0 9 -4 16 -10 16 -5 0 -10 23 -10 50 0 28 -4 50 -10 50
-5 0 -10 9 -10 20 0 11 5 20 10 20 6 0 10 9 10 20 0 12 7 20 16 20 20 0 44 24
44 44 0 9 7 16 16 16 9 0 29 14 44 30 15 17 35 30 44 30 9 0 16 5 16 10 0 6
23 10 50 10 28 0 50 5 50 10 0 6 23 10 50 10 54 0 61 7 30 30 -11 8 -20 22
-20 32 0 11 -7 18 -20 18 -13 0 -20 7 -20 20 0 11 -4 20 -8 20 -4 0 -14 -9
-22 -20 -8 -11 -22 -20 -32 -20 -10 0 -18 -4 -18 -10 0 -5 -8 -10 -18 -10 -10
0 -24 -9 -32 -20 -8 -11 -21 -20 -30 -20 -9 0 -22 -9 -30 -20 -8 -11 -22 -20
-32 -20 -10 0 -18 -4 -18 -10 0 -5 -13 -10 -30 -10 -16 0 -30 -4 -30 -10 0 -5
-18 -10 -40 -10 -22 0 -40 -4 -40 -10 0 -5 -9 -10 -20 -10 -11 0 -20 -4 -20
-10 0 -5 -18 -10 -40 -10 -22 0 -40 -4 -40 -10 0 -5 -9 -10 -20 -10 -11 0 -20
-4 -20 -10 0 -5 -4 -10 -10 -10 -5 0 -10 9 -10 20 0 11 -4 20 -10 20 -15 0
-12 29 4 46 8 8 22 14 30 14 9 0 16 5 16 10 0 6 9 10 20 10 11 0 20 5 20 10 0
6 9 10 20 10 11 0 20 5 20 10 0 6 9 10 20 10 11 0 20 5 20 10 0 6 9 10 20 10
11 0 20 5 20 10 0 6 9 10 20 10 16 0 20 7 20 30 0 17 -4 30 -10 30 -5 0 -10 9
-10 20 0 11 -4 20 -10 20 -5 0 -10 7 -10 16 0 8 -28 42 -61 75 -34 33 -59 62
-56 65 7 7 217 -203 217 -217 0 -16 26 -39 44 -39 9 0 16 5 16 10 0 6 9 10 20
10 11 0 20 5 20 10 0 6 9 10 20 10 11 0 20 5 20 10 0 6 -4 10 -10 10 -5 0 -10
18 -10 40 0 22 -4 40 -10 40 -5 0 -10 23 -10 50 0 28 -4 50 -10 50 -5 0 -10 9
-10 20 0 16 7 20 30 20 25 0 30 4 30 25 0 29 -51 88 -58 67 -7 -23 -22 -12
-22 18 0 17 -4 30 -10 30 -5 0 -10 14 -10 30 0 17 -4 30 -10 30 -5 0 -10 23
-10 50 0 28 -4 50 -10 50 -6 0 -10 27 -10 60 0 33 -4 60 -10 60 -5 0 -10 14
-10 30 0 17 -4 30 -10 30 -5 0 -10 14 -10 30 0 21 -5 30 -16 30 -23 0 -44 25
-44 53 0 14 -6 27 -12 30 -9 3 -6 11 10 24 12 11 22 26 22 32 0 20 33 48 38
33 5 -16 39 -16 45 1 4 9 8 8 16 -3 10 -13 12 -13 20 0 8 12 13 11 30 -9 l21
-24 19 21 c12 15 30 22 55 22 20 0 36 5 36 10 0 6 23 10 50 10 28 0 50 5 50
10 0 6 14 10 30 10 17 0 30 5 30 10 0 6 18 10 40 10 38 0 40 2 40 30 0 17 -4
30 -10 30 -5 0 -10 14 -10 30 0 23 4 30 20 30 13 0 20 -7 20 -20z m-380 -990
c0 -5 -4 -10 -10 -10 -5 0 -10 5 -10 10 0 6 5 10 10 10 6 0 10 -4 10 -10z
m195 -175 c32 -31 31 -35 -5 -35 -16 0 -30 -4 -30 -10 0 -5 -22 -10 -50 -10
-27 0 -50 -4 -50 -10 0 -5 -4 -10 -10 -10 -5 0 -10 9 -10 20 0 13 7 20 18 20
10 0 24 9 32 20 8 12 26 20 42 20 15 0 28 5 28 10 0 16 9 12 35 -15z m1465
-225 c0 -5 14 -10 30 -10 17 0 30 -4 30 -10 0 -5 14 -10 30 -10 17 0 30 -4 30
-10 0 -5 9 -10 20 -10 11 0 20 -4 20 -10 0 -5 9 -10 20 -10 11 0 20 -4 20 -10
0 -5 14 -10 30 -10 17 0 30 -4 30 -10 0 -5 9 -10 20 -10 11 0 20 -4 20 -10 0
-5 8 -10 18 -10 10 0 24 -9 32 -20 8 -11 22 -20 32 -20 10 0 18 -4 18 -10 0
-5 9 -10 20 -10 11 0 20 -4 20 -10 0 -5 9 -10 20 -10 11 0 20 -4 20 -10 0 -5
14 -10 30 -10 17 0 30 5 30 10 0 6 14 10 30 10 17 0 30 5 30 10 0 6 9 10 20
10 11 0 20 5 20 10 0 6 9 10 20 10 11 0 20 5 20 10 0 6 14 10 30 10 17 0 30 5
30 10 0 6 30 10 70 10 40 0 70 4 70 10 0 6 9 10 20 10 11 0 20 -4 20 -10 0 -5
14 -10 30 -10 17 0 30 -4 30 -10 0 -5 18 -10 40 -10 22 0 40 -4 40 -10 0 -6
27 -10 60 -10 33 0 60 -4 60 -10 0 -5 8 -10 18 -10 10 0 24 -9 32 -20 11 -16
26 -20 68 -20 33 0 59 -5 68 -14 16 -17 20 -106 4 -106 -6 0 -10 -33 -10 -80
l0 -80 40 0 c33 0 40 -3 40 -20 0 -11 -4 -20 -10 -20 -5 0 -10 -18 -10 -40 0
-22 -4 -40 -10 -40 -5 0 -10 -18 -10 -40 0 -22 -4 -40 -10 -40 -5 0 -10 7 -10
16 0 18 -23 44 -40 44 -15 0 -40 -25 -40 -40 0 -17 26 -40 44 -40 11 0 16 -9
16 -30 0 -26 4 -30 28 -30 16 0 34 -8 42 -20 8 -11 20 -20 28 -20 16 0 42 -24
42 -40 0 -22 -29 -40 -64 -40 -20 0 -36 -4 -36 -10 0 -5 -9 -10 -20 -10 -13 0
-20 -7 -20 -20 0 -11 5 -20 10 -20 18 0 11 -55 -10 -70 -11 -8 -20 -22 -20
-32 0 -10 -4 -18 -10 -18 -5 0 -10 -18 -10 -40 0 -22 -4 -40 -10 -40 -5 0 -10
-25 -10 -55 l0 -55 -176 -176 c-174 -174 -176 -175 -193 -155 -15 17 -30 21
-85 21 l-66 0 0 30 c0 28 -2 30 -40 30 -38 0 -40 2 -40 30 0 26 -4 30 -26 30
-29 0 -54 21 -54 44 0 9 -8 16 -20 16 -12 0 -20 7 -20 16 0 20 -24 44 -44 44
-19 0 -21 16 -3 23 8 3 5 11 -10 24 -13 11 -23 26 -23 32 0 19 -53 67 -58 53
-2 -7 -10 -12 -19 -12 -8 0 -28 -13 -43 -30 -23 -25 -36 -30 -74 -30 -25 0
-46 -4 -46 -10 0 -5 -9 -10 -20 -10 -11 0 -20 5 -20 10 0 14 -38 12 -42 -2 -7
-21 -38 17 -38 46 0 14 -4 26 -10 26 -5 0 -10 23 -10 50 0 28 -4 50 -10 50 -5
0 -10 9 -10 20 0 23 -34 28 -44 8 -5 -10 -7 -10 -12 0 -3 6 -14 12 -25 12 -16
0 -19 7 -19 48 0 36 -5 51 -20 62 -15 11 -20 26 -20 58 0 45 -17 72 -44 72 -9
0 -16 5 -16 10 0 6 -9 10 -20 10 -11 0 -20 5 -20 10 0 6 -18 10 -40 10 -22 0
-40 5 -40 10 0 6 -13 10 -30 10 -22 0 -30 5 -30 18 0 10 -9 24 -20 32 -11 8
-20 22 -20 32 0 10 -4 18 -10 18 -5 0 -10 13 -10 28 0 16 -8 34 -20 42 -14 10
-20 26 -20 50 0 24 6 40 20 50 11 8 20 22 20 32 0 10 5 18 10 18 6 0 10 7 10
16 0 9 14 29 30 44 17 15 30 35 30 44 0 9 5 16 10 16 6 0 10 8 10 18 0 10 9
24 20 32 11 8 20 20 20 28 0 18 66 82 85 82 8 0 15 5 15 10 0 6 -9 10 -20 10
-11 0 -20 5 -20 10 0 6 5 10 10 10 6 0 10 7 10 16 0 9 14 29 30 44 17 15 30
33 30 39 0 13 41 59 53 60 4 1 7 -3 7 -9z m1580 -420 c0 -15 57 -12 64 3 5 10
7 10 12 0 3 -7 12 -13 20 -13 8 0 31 -16 51 -36 29 -29 33 -38 22 -46 -11 -7
-11 -11 -1 -15 24 -10 11 -35 -48 -93 -33 -32 -60 -65 -60 -72 0 -8 -9 -20
-20 -28 -11 -8 -20 -20 -20 -28 0 -22 -68 -82 -92 -82 -13 0 -30 9 -38 20 -8
11 -22 20 -32 20 -10 0 -18 5 -18 10 0 6 -9 10 -20 10 -13 0 -20 7 -20 20 0
13 7 20 20 20 17 0 20 7 20 40 0 22 5 40 10 40 6 0 10 18 10 40 0 22 5 40 10
40 6 0 10 9 10 19 0 11 6 21 12 23 25 9 -20 38 -56 38 -33 0 -36 2 -36 30 0
17 5 30 10 30 6 0 10 -4 10 -10 0 -5 14 -10 30 -10 17 0 30 5 30 10 0 6 9 10
20 10 11 0 20 5 20 10 0 6 18 10 40 10 22 0 40 -4 40 -10z m646 -104 c8 -8 14
-24 14 -36 0 -30 103 -130 135 -130 14 0 25 -4 25 -10 0 -5 13 -10 28 -10 16
0 34 -8 42 -20 8 -11 20 -20 28 -20 22 0 62 -48 62 -75 0 -14 5 -25 10 -25 6
0 10 -18 10 -40 l0 -40 46 0 c26 0 52 -6 60 -14 19 -20 18 -26 -6 -26 -11 0
-20 -4 -20 -10 0 -5 -18 -10 -40 -10 -22 0 -40 5 -40 10 0 6 -17 10 -38 10
-26 0 -42 6 -52 20 -8 11 -20 20 -28 20 -18 0 -42 -25 -42 -44 0 -9 -8 -16
-20 -16 -11 0 -20 -4 -20 -10 0 -5 -7 -10 -15 -10 -26 0 -85 -66 -85 -95 0
-14 -4 -25 -10 -25 -15 0 -13 -117 3 -124 10 -5 10 -7 0 -12 -9 -4 -13 -29
-13 -75 0 -39 -4 -69 -10 -69 -5 0 -10 -11 -10 -25 0 -29 -40 -75 -65 -75 -8
0 -15 -4 -15 -10 0 -5 -17 -10 -38 -10 -26 0 -42 -6 -52 -20 -11 -15 -26 -20
-62 -20 -26 0 -48 5 -48 10 0 6 -18 10 -40 10 -33 0 -40 3 -40 19 0 11 -6 22
-12 24 -10 4 -10 8 1 15 12 9 11 13 -4 29 -13 13 -20 14 -23 5 -2 -6 -12 -12
-23 -12 -11 0 -19 -7 -19 -16 0 -8 -18 -33 -40 -54 -22 -21 -40 -46 -40 -54 0
-9 -4 -16 -10 -16 -6 0 -10 -27 -10 -60 0 -33 -4 -60 -10 -60 -5 0 -10 -18
-10 -40 0 -22 -4 -40 -10 -40 -6 0 -10 -40 -10 -100 0 -60 -4 -100 -10 -100
-5 0 -10 -18 -10 -40 0 -22 5 -40 10 -40 6 0 10 -40 10 -100 0 -60 4 -100 10
-100 16 0 13 -237 -2 -243 -10 -4 -9 -8 2 -17 11 -9 12 -13 3 -17 -8 -3 -13
-24 -13 -54 0 -27 -4 -49 -10 -49 -6 0 -10 -27 -10 -60 l0 -60 -70 0 c-40 0
-70 -4 -70 -10 0 -5 -18 -10 -40 -10 -22 0 -40 -4 -40 -10 0 -5 -18 -10 -40
-10 -38 0 -40 2 -40 30 0 17 -4 30 -10 30 -5 0 -10 23 -10 50 0 28 -4 50 -10
50 -5 0 -10 23 -10 50 0 28 -4 50 -10 50 -5 0 -10 18 -10 39 0 22 -6 42 -12
45 -10 5 -10 7 0 12 9 4 12 45 12 153 0 135 -2 148 -20 161 -15 11 -20 26 -20
62 0 26 -4 48 -10 48 -5 0 -10 14 -10 30 0 17 -4 30 -10 30 -5 0 -10 7 -10 16
0 25 -26 44 -62 44 -22 0 -39 7 -48 20 -8 12 -26 20 -42 20 -15 0 -28 5 -28
10 0 6 -22 10 -50 10 -27 0 -50 -4 -50 -10 0 -5 -7 -10 -15 -10 -18 0 -85 64
-85 80 0 7 -18 29 -40 50 -22 21 -40 44 -40 50 0 7 -13 25 -30 40 -16 15 -30
33 -30 40 0 6 -27 38 -60 70 -33 32 -60 66 -60 74 0 9 -4 16 -10 16 -5 0 -10
7 -10 16 0 8 -18 33 -40 54 -22 21 -40 44 -40 50 0 7 -14 25 -31 41 -27 26
-29 30 -16 44 21 21 67 20 67 -1 0 -9 10 -26 23 -37 15 -13 18 -21 10 -24 -7
-3 -13 -13 -13 -24 0 -14 7 -19 30 -19 20 0 30 -5 30 -15 0 -20 85 -105 105
-105 10 0 15 -10 15 -30 0 -28 2 -30 40 -30 38 0 40 -2 40 -30 l0 -30 70 0
c40 0 70 -4 70 -10 0 -5 9 -10 19 -10 11 0 21 -5 23 -12 3 -7 64 47 136 120
72 73 136 132 142 132 16 0 100 87 100 104 0 8 6 17 13 19 9 4 8 8 -3 16 -13
10 -13 12 0 22 11 8 12 12 3 16 -20 8 -15 23 7 23 18 0 20 7 20 60 0 33 4 60
10 60 6 0 10 9 10 20 0 11 5 20 10 20 6 0 10 23 10 50 l0 50 45 0 c54 0 95 33
95 75 0 23 4 25 40 25 33 0 40 3 40 19 0 11 -6 21 -12 24 -9 3 -6 11 10 24 12
11 22 28 22 37 0 9 5 16 10 16 6 0 10 7 10 16 0 8 27 42 60 74 33 32 60 66 60
74 0 9 9 16 20 16 16 0 20 -7 20 -30 0 -16 5 -30 10 -30 6 0 10 -9 10 -20 0
-22 35 -28 43 -7 4 9 8 8 17 -3 9 -11 13 -12 17 -2 2 6 13 12 24 12 10 0 19 5
19 10 0 6 14 10 30 10 17 0 30 5 30 10 0 6 8 10 18 10 10 0 24 9 32 20 10 14
26 20 52 20 21 0 38 5 38 10 0 15 49 12 66 -4z m-2640 -40 c8 -8 14 -25 14
-38 0 -13 9 -30 20 -38 12 -8 20 -26 20 -42 0 -15 5 -28 10 -28 6 0 10 -7 10
-15 0 -20 65 -85 85 -85 8 0 15 -4 15 -10 0 -5 22 -10 48 -10 36 0 51 -5 62
-20 8 -11 20 -20 28 -20 20 0 50 -32 34 -38 -21 -7 -13 -33 18 -62 23 -21 30
-37 30 -64 0 -20 -4 -36 -10 -36 -5 0 -10 -4 -10 -10 0 -5 8 -10 18 -10 10 0
24 -9 32 -20 16 -22 46 -27 52 -8 3 9 9 8 21 -4 11 -11 17 -33 17 -62 0 -25 5
-46 10 -46 6 0 10 -11 10 -25 0 -29 51 -88 58 -67 4 14 42 16 42 2 0 -5 9 -10
20 -10 11 0 20 5 20 10 0 6 23 10 50 10 28 0 50 5 50 10 0 6 7 10 15 10 18 0
65 -44 65 -60 0 -7 18 -29 40 -50 22 -21 40 -46 40 -54 0 -9 5 -16 10 -16 6 0
10 -7 10 -16 0 -8 27 -42 60 -74 33 -32 60 -64 60 -70 0 -7 14 -25 30 -40 17
-15 30 -33 30 -40 0 -6 18 -29 40 -50 49 -47 56 -90 14 -90 -16 0 -37 -12 -54
-30 -17 -18 -38 -30 -54 -30 -14 0 -26 -4 -26 -10 0 -5 -13 -10 -30 -10 -16 0
-30 -4 -30 -10 0 -5 -9 -10 -20 -10 -11 0 -20 -4 -20 -10 0 -5 -9 -10 -20 -10
-11 0 -20 -7 -20 -15 0 -9 -11 -27 -25 -40 -18 -19 -35 -25 -70 -25 -25 0 -45
5 -45 10 0 6 -7 10 -16 10 -8 0 -33 18 -54 40 -21 22 -44 40 -51 40 -6 0 -20
10 -31 22 -16 19 -21 20 -29 8 -8 -11 -12 -12 -16 -2 -2 6 -13 12 -24 12 -12
0 -19 7 -19 20 0 11 -4 20 -10 20 -5 0 -10 -4 -10 -10 0 -5 -18 -10 -40 -10
-33 0 -40 -3 -40 -20 0 -13 -7 -20 -20 -20 -15 0 -20 -7 -20 -26 0 -29 -21
-54 -44 -54 -9 0 -16 8 -16 19 0 11 -6 22 -12 24 -10 4 -9 8 2 17 11 9 12 13
3 17 -7 2 -13 11 -13 20 0 19 -24 43 -44 43 -13 0 -16 14 -16 80 0 47 4 80 10
80 6 0 10 9 10 20 0 11 -4 20 -10 20 -5 0 -10 9 -10 20 0 11 -4 20 -10 20 -5
0 -10 14 -10 30 0 17 -4 30 -10 30 -5 0 -10 13 -10 29 0 16 -6 32 -12 35 -10
5 -10 7 0 12 6 3 12 14 12 24 0 10 6 21 13 24 10 5 10 7 0 12 -7 3 -13 14 -13
25 0 10 -4 19 -10 19 -5 0 -10 7 -10 16 0 30 -27 44 -84 44 -31 0 -56 -4 -56
-10 0 -5 -9 -10 -20 -10 -11 0 -20 -4 -20 -10 0 -5 -9 -10 -20 -10 -11 0 -20
-4 -20 -10 0 -5 -18 -10 -40 -10 -22 0 -40 -4 -40 -10 0 -5 -13 -10 -30 -10
-16 0 -30 -4 -30 -10 0 -5 -13 -10 -30 -10 -16 0 -30 -4 -30 -10 0 -5 -18 -10
-39 -10 -22 0 -41 -5 -43 -12 -9 -25 -38 20 -38 56 0 20 -4 36 -10 36 -5 0
-10 23 -10 50 0 28 -4 50 -10 50 -5 0 -10 14 -10 30 0 17 5 30 10 30 6 0 10 7
10 16 0 20 24 44 44 44 9 0 16 5 16 10 0 6 14 10 30 10 17 0 30 5 30 10 0 6 9
10 20 10 11 0 20 5 20 10 0 6 9 10 20 10 11 0 20 5 20 10 0 6 9 10 20 10 11 0
20 5 20 10 0 6 9 10 20 10 13 0 20 7 20 20 0 11 -4 20 -10 20 -5 0 -10 9 -10
20 0 11 -4 20 -10 20 -5 0 -10 9 -10 20 0 11 -4 20 -10 20 -5 0 -10 13 -10 28
0 16 -8 34 -20 42 -11 8 -20 22 -20 32 0 10 -4 18 -10 18 -5 0 -10 9 -10 20 0
11 -4 20 -10 20 -5 0 -10 9 -10 20 0 11 -4 20 -10 20 -18 0 -10 31 15 55 13
14 31 25 40 25 8 0 15 5 15 10 0 6 8 10 18 10 10 0 24 9 32 20 8 11 21 20 30
20 9 0 22 9 30 20 17 24 36 26 56 6z m1774 -126 c0 -24 -6 -25 -26 -6 -19 20
-18 26 6 26 13 0 20 -7 20 -20z m-1605 -685 c14 -13 25 -31 25 -39 0 -8 6 -16
13 -19 8 -3 5 -11 -10 -24 -23 -21 -31 -53 -13 -53 6 0 10 -13 10 -30 0 -16 5
-30 10 -30 6 0 10 -13 10 -30 0 -16 5 -30 10 -30 6 0 10 -13 10 -29 0 -16 6
-32 13 -35 10 -5 10 -7 0 -12 -9 -4 -13 -33 -13 -95 0 -74 3 -89 16 -89 27 0
44 -27 44 -70 0 -50 18 -70 60 -70 36 0 60 20 60 50 0 56 98 94 130 50 10 -14
26 -20 52 -20 21 0 38 -4 38 -10 0 -5 7 -10 16 -10 8 0 33 -18 54 -40 21 -22
44 -40 51 -40 6 0 21 -10 32 -22 13 -16 21 -19 24 -10 3 6 20 12 39 12 37 0
84 36 84 65 0 8 9 15 20 15 11 0 20 5 20 10 0 6 9 10 19 10 11 0 22 6 24 13 4
9 8 8 16 -3 8 -12 13 -11 29 8 11 12 29 22 42 22 12 0 35 14 50 30 23 24 36
30 70 30 34 0 47 -6 70 -30 33 -35 40 -37 40 -10 0 17 7 20 50 20 28 0 50 -4
50 -10 0 -5 9 -10 20 -10 11 0 20 -4 20 -10 0 -5 9 -10 20 -10 11 0 20 -4 20
-10 0 -5 18 -10 40 -10 33 0 40 -3 40 -20 0 -11 5 -20 10 -20 6 0 10 -18 10
-40 0 -22 5 -40 10 -40 6 0 10 -18 10 -40 0 -22 5 -40 10 -40 6 0 10 -9 10
-20 0 -11 5 -20 10 -20 6 0 10 -47 10 -120 0 -73 -4 -120 -10 -120 -5 0 -10
-13 -10 -30 0 -16 5 -30 10 -30 6 0 10 -18 10 -40 0 -22 5 -40 10 -40 6 0 10
-22 10 -50 0 -27 5 -50 10 -50 6 0 10 -22 10 -50 0 -27 5 -50 10 -50 6 0 10
-22 10 -50 0 -27 5 -50 10 -50 6 0 10 -22 10 -50 0 -27 5 -50 10 -50 6 0 10
-22 10 -50 0 -27 5 -50 10 -50 6 0 10 -18 10 -39 0 -22 5 -41 13 -44 8 -3 5
-11 -10 -24 -13 -12 -23 -32 -23 -47 0 -14 -4 -26 -10 -26 -5 0 -10 -13 -10
-30 0 -16 -4 -30 -10 -30 -5 0 -10 -9 -10 -20 0 -13 -7 -20 -20 -20 -16 0 -20
-7 -20 -30 0 -16 5 -30 10 -30 6 0 10 -8 10 -18 0 -10 9 -24 20 -32 11 -8 20
-21 20 -30 0 -9 -9 -22 -20 -30 -11 -8 -20 -22 -20 -32 0 -10 -4 -18 -10 -18
-5 0 -10 -9 -10 -20 0 -11 -7 -20 -16 -20 -8 0 -37 -22 -64 -50 -27 -27 -54
-50 -60 -50 -6 0 -38 -27 -70 -60 -54 -55 -90 -75 -90 -50 0 6 -13 10 -30 10
-16 0 -30 -4 -30 -10 0 -14 -37 -12 -43 3 -4 9 -8 8 -16 -3 -8 -12 -13 -11
-29 8 -13 14 -31 22 -51 22 -18 0 -39 6 -47 14 -17 18 -18 62 -1 70 10 5 10 7
0 12 -7 3 -13 14 -13 25 0 10 -4 19 -10 19 -5 0 -10 14 -10 30 0 27 -3 30 -30
30 -26 0 -30 4 -30 26 0 23 -20 54 -34 54 -3 0 -6 -9 -6 -20 0 -16 -7 -20 -30
-20 -23 0 -30 4 -30 20 0 11 5 20 10 20 6 0 10 5 10 10 0 6 -7 10 -16 10 -8 0
-33 18 -54 40 -37 38 -41 40 -100 40 -75 0 -110 27 -110 85 0 19 -4 35 -10 35
-5 0 -10 9 -10 20 0 11 -4 20 -10 20 -5 0 -10 23 -10 50 0 28 -4 50 -10 50 -5
0 -10 16 -10 35 0 27 -8 44 -35 70 -19 19 -39 35 -45 35 -6 0 -33 23 -60 50
-33 34 -57 50 -74 50 -14 0 -26 5 -26 10 0 6 -9 10 -20 10 -11 0 -20 5 -20 10
0 6 -13 10 -30 10 -30 0 -40 14 -17 24 10 5 10 7 0 12 -7 3 -13 14 -13 25 0
12 -7 19 -20 19 -13 0 -20 -7 -20 -20 0 -13 7 -20 20 -20 11 0 20 -4 20 -10 0
-5 -4 -10 -10 -10 -5 0 -10 -9 -10 -20 0 -16 7 -20 30 -20 17 0 30 -4 30 -10
0 -5 9 -10 20 -10 11 0 20 -4 20 -10 0 -5 12 -10 26 -10 17 0 41 -16 74 -50
27 -27 54 -50 60 -50 21 0 80 -69 80 -95 0 -14 5 -25 10 -25 6 0 10 -27 10
-60 0 -33 4 -60 10 -60 6 0 10 -9 10 -20 0 -11 5 -20 10 -20 6 0 10 -18 10
-39 0 -22 6 -42 13 -45 10 -5 10 -7 0 -12 -21 -10 -16 -44 7 -44 13 0 20 7 20
20 0 11 5 20 10 20 6 0 10 -4 10 -10 0 -5 25 -10 55 -10 52 0 58 -3 100 -45
25 -24 45 -54 45 -65 0 -26 31 -61 38 -42 2 6 12 12 23 12 10 0 19 5 19 10 0
6 5 10 10 10 6 0 10 -13 10 -30 0 -27 3 -30 30 -30 27 0 30 -3 30 -30 0 -16 5
-30 10 -30 6 0 10 -25 10 -56 0 -62 14 -84 54 -84 14 0 26 -4 26 -10 0 -5 13
-10 29 -10 16 0 32 -6 34 -12 4 -10 8 -9 17 2 9 11 13 12 17 3 6 -15 43 -17
43 -3 0 6 9 10 20 10 19 0 20 -7 20 -90 0 -53 -4 -90 -10 -90 -5 0 -10 -13
-10 -30 0 -16 5 -30 10 -30 6 0 10 -18 10 -40 0 -22 5 -40 10 -40 6 0 10 -9
10 -20 0 -11 -4 -20 -10 -20 -5 0 -10 -18 -10 -40 0 -22 -4 -40 -10 -40 -5 0
-10 -9 -10 -20 0 -11 -4 -20 -10 -20 -5 0 -10 -13 -10 -30 0 -16 -4 -30 -10
-30 -5 0 -10 -13 -10 -30 0 -16 -4 -30 -10 -30 -5 0 -10 -9 -10 -20 0 -11 -4
-20 -10 -20 -5 0 -10 -13 -10 -30 0 -16 -4 -30 -10 -30 -5 0 -10 -9 -10 -20 0
-11 -4 -20 -10 -20 -5 0 -10 -13 -10 -29 0 -16 -6 -32 -12 -35 -10 -5 -10 -7
0 -12 8 -4 12 -35 12 -105 0 -59 4 -99 10 -99 6 0 10 -27 10 -60 0 -33 -4 -60
-10 -60 -6 0 -10 -37 -10 -90 0 -53 4 -90 10 -90 6 0 10 -9 10 -20 0 -11 5
-20 10 -20 6 0 10 -7 10 -16 0 -9 14 -29 30 -44 16 -15 30 -33 30 -40 0 -7 14
-25 31 -41 18 -16 28 -33 24 -37 -4 -4 -10 -1 -12 6 -3 7 -22 12 -44 12 -32 0
-39 3 -39 20 0 12 -7 20 -16 20 -22 0 -44 25 -44 51 0 12 -10 31 -22 42 -16
13 -19 21 -10 24 7 3 12 24 12 54 0 42 -3 49 -20 49 -11 0 -20 5 -20 10 0 6
-9 10 -20 10 -11 0 -20 5 -20 10 0 6 -22 10 -50 10 -47 0 -65 11 -37 24 10 5
10 7 0 12 -7 3 -13 23 -13 45 0 21 -4 39 -10 39 -5 0 -10 9 -10 20 0 13 -7 20
-20 20 -13 0 -20 7 -20 20 0 11 -7 20 -15 20 -20 0 -85 65 -85 85 0 8 -9 15
-20 15 -11 0 -20 -4 -20 -10 0 -5 -9 -10 -20 -10 -13 0 -20 7 -20 20 0 11 -4
20 -10 20 -5 0 -10 18 -10 40 0 22 -4 40 -10 40 -5 0 -10 7 -10 15 0 18 -64
85 -80 85 -21 0 -60 49 -60 75 0 14 -4 25 -10 25 -5 0 -10 14 -10 30 0 17 -4
30 -10 30 -5 0 -10 9 -10 20 0 13 -7 20 -19 20 -11 0 -22 6 -25 13 -5 10 -7
10 -12 0 -3 -7 -14 -13 -25 -13 -16 0 -19 7 -19 50 0 43 -3 50 -20 50 -13 0
-20 7 -20 20 0 13 -7 20 -20 20 -16 0 -20 7 -20 30 0 17 -4 30 -10 30 -5 0
-10 9 -10 20 0 11 -4 20 -10 20 -5 0 -10 9 -10 20 0 18 -7 20 -60 20 -33 0
-60 4 -60 10 0 6 -13 10 -28 10 -16 0 -34 8 -42 20 -8 12 -26 20 -42 20 -15 0
-28 5 -28 10 0 6 -7 10 -15 10 -19 0 -65 44 -65 62 0 8 -9 20 -20 28 -11 8
-20 21 -20 28 0 7 -18 31 -40 52 -32 31 -40 46 -40 74 0 20 -4 36 -10 36 -6 0
-10 30 -10 70 0 40 -4 70 -10 70 -5 0 -10 7 -10 16 0 8 -18 33 -40 54 -22 21
-40 46 -40 54 0 9 -4 16 -10 16 -5 0 -10 7 -10 16 0 9 -13 29 -30 44 -35 32
-39 60 -10 60 13 0 20 7 20 18 0 10 9 24 20 32 11 8 20 20 20 28 0 18 -25 42
-44 42 -9 0 -16 8 -16 20 0 17 7 20 50 20 60 0 66 17 20 60 -33 31 -42 80 -14
80 19 0 44 24 44 42 0 8 9 20 20 28 11 8 20 21 20 30 0 9 9 22 20 30 11 8 20
21 20 30 0 9 9 22 20 30 14 10 20 26 20 52 0 21 5 38 10 38 6 0 10 7 10 16 0
8 6 22 14 30 17 16 46 19 46 4 0 -5 9 -10 20 -10 13 0 20 -7 20 -20 0 -13 7
-20 20 -20 11 0 20 -4 20 -10 0 -5 9 -10 20 -10 11 0 20 5 20 10 0 15 29 12
46 -4 8 -8 14 -22 14 -30 0 -11 9 -16 30 -16 23 0 30 4 30 20 0 12 -7 20 -16
20 -9 0 -30 15 -47 33 -19 20 -32 27 -34 20 -3 -8 -21 -13 -44 -13 -32 0 -39
3 -39 20 0 16 -7 20 -30 20 -16 0 -30 5 -30 10 0 6 -9 10 -20 10 -22 0 -27 15
-7 24 10 5 10 7 0 12 -7 3 -13 12 -13 20 0 20 45 64 65 64 8 0 15 9 15 20 0
11 5 20 10 20 6 0 10 9 10 20 0 11 5 20 10 20 6 0 10 33 10 80 0 47 4 80 10
80 6 0 10 9 10 20 0 11 -4 20 -10 20 -5 0 -10 14 -10 30 l0 30 -160 0 c-100 0
-160 -4 -160 -10 0 -5 -13 -10 -28 -10 -16 0 -34 -8 -42 -20 -8 -11 -22 -20
-32 -20 -10 0 -18 -4 -18 -10 0 -5 -4 -10 -10 -10 -5 0 -10 14 -10 30 0 17 5
30 10 30 6 0 10 14 10 30 0 17 5 30 10 30 6 0 10 14 10 30 0 17 5 30 10 30 6
0 10 9 10 20 0 11 5 20 10 20 6 0 10 18 10 40 0 22 5 40 10 40 6 0 10 18 10
40 0 22 5 40 10 40 6 0 10 27 10 60 0 33 -4 60 -10 60 -5 0 -10 23 -10 50 0
28 -4 50 -10 50 -5 0 -10 18 -10 40 0 22 -4 40 -10 40 -5 0 -10 18 -10 39 0
22 -5 41 -12 43 -25 9 20 38 56 38 20 0 36 5 36 10 0 6 14 10 30 10 17 0 30 5
30 10 0 6 14 10 30 10 17 0 30 5 30 10 0 6 18 10 40 10 22 0 40 5 40 10 0 6 9
10 20 10 11 0 20 5 20 10 0 6 9 10 20 10 11 0 20 5 20 10 0 6 20 10 45 10 35
0 52 -6 70 -25z m1865 -1711 l0 -276 30 -28 c29 -27 42 -80 20 -80 -5 0 -10
-9 -10 -20 0 -11 -4 -20 -10 -20 -5 0 -10 -17 -10 -38 0 -26 6 -42 20 -52 16
-12 20 -26 20 -72 0 -32 4 -58 10 -58 6 0 10 -22 10 -50 0 -27 5 -50 10 -50 6
0 10 -30 10 -70 0 -40 4 -70 10 -70 6 0 10 -13 10 -30 0 -23 4 -30 20 -30 17
0 20 -7 20 -39 0 -22 -6 -42 -12 -45 -10 -5 -10 -7 0 -12 6 -3 12 -23 12 -45
0 -21 5 -39 10 -39 6 0 10 -9 10 -20 0 -11 5 -20 10 -20 6 0 10 -33 10 -80 0
-47 4 -80 10 -80 6 0 10 -22 10 -50 0 -27 5 -50 10 -50 6 0 10 -22 10 -50 0
-27 5 -50 10 -50 6 0 10 -22 10 -50 0 -27 5 -50 10 -50 6 0 10 -9 10 -20 0
-11 5 -20 10 -20 6 0 10 -13 10 -30 0 -23 4 -30 20 -30 18 0 20 -7 20 -60 0
-33 4 -60 10 -60 6 0 10 -8 10 -18 0 -10 9 -24 20 -32 12 -8 20 -26 20 -42 0
-15 5 -28 10 -28 6 0 10 -7 10 -16 0 -18 23 -44 40 -44 15 0 40 -25 40 -41 0
-6 -10 -20 -22 -31 -19 -16 -20 -21 -8 -29 11 -8 12 -12 3 -16 -7 -2 -13 -13
-13 -24 0 -12 -7 -19 -20 -19 -18 0 -20 -7 -20 -70 0 -40 -4 -70 -10 -70 -5 0
-10 -9 -10 -20 0 -13 -7 -20 -20 -20 -11 0 -20 -4 -20 -10 0 -5 5 -10 10 -10
6 0 10 -4 10 -10 0 -5 -18 -10 -39 -10 -22 0 -41 -5 -43 -12 -5 -14 -58 34
-58 52 0 17 -26 40 -44 40 -9 0 -16 -8 -16 -20 0 -11 -4 -20 -10 -20 -5 0 -10
-7 -10 -16 0 -18 -23 -44 -40 -44 -6 0 -29 -18 -50 -40 -21 -22 -46 -40 -54
-40 -9 0 -16 -4 -16 -10 0 -5 -9 -10 -20 -10 -13 0 -20 -7 -20 -20 0 -11 -4
-20 -10 -20 -5 0 -10 5 -10 10 0 6 -9 10 -20 10 -11 0 -20 -4 -20 -10 0 -5 -9
-10 -20 -10 -16 0 -20 -7 -20 -30 0 -16 -4 -30 -10 -30 -5 0 -10 -9 -10 -20 0
-13 -7 -20 -20 -20 -18 0 -20 -7 -20 -56 0 -57 -14 -84 -44 -84 -11 0 -16 -9
-16 -26 0 -16 -12 -37 -30 -54 -16 -15 -30 -35 -30 -44 0 -9 -4 -16 -10 -16
-5 0 -10 -9 -10 -20 0 -15 -7 -20 -26 -20 -26 0 -54 -20 -54 -40 0 -14 -46
-60 -60 -60 -7 0 -29 -18 -51 -41 -35 -36 -41 -39 -54 -25 -12 12 -15 44 -15
160 0 91 -4 146 -10 146 -6 0 -10 30 -10 70 0 40 -4 70 -10 70 -6 0 -10 37
-10 90 0 53 4 90 10 90 6 0 10 14 10 30 0 17 5 30 10 30 6 0 10 23 10 50 0 28
-4 50 -10 50 -5 0 -10 21 -10 46 0 38 -5 51 -30 74 -16 15 -30 33 -30 40 0 7
-13 25 -30 40 -16 15 -30 35 -30 44 0 9 -4 16 -10 16 -5 0 -10 9 -10 20 0 11
-4 20 -10 20 -6 0 -10 37 -10 90 0 53 4 90 10 90 6 0 10 27 10 60 0 33 -4 60
-10 60 -6 0 -10 53 -10 140 0 87 4 140 10 140 6 0 10 9 10 20 0 11 5 20 10 20
6 0 10 14 10 30 0 17 5 30 10 30 6 0 10 9 10 20 0 11 5 20 10 20 6 0 10 14 10
30 0 17 5 30 10 30 6 0 10 14 10 30 0 17 5 30 10 30 6 0 10 9 10 20 0 11 5 20
10 20 6 0 10 14 10 30 0 17 5 30 10 30 6 0 10 14 10 30 0 17 -4 30 -10 30 -5
0 -10 18 -10 40 0 22 -4 40 -10 40 -5 0 -10 9 -10 20 0 11 5 20 10 20 6 0 10
37 10 90 0 75 3 90 16 90 8 0 42 27 74 60 32 33 64 60 70 60 6 0 33 23 60 50
27 28 54 50 60 50 16 0 80 67 80 85 0 8 5 15 10 15 18 0 11 55 -10 70 -11 8
-20 26 -20 41 0 15 -6 29 -12 32 -9 3 -6 11 10 24 12 11 22 28 22 37 0 9 5 16
10 16 6 0 10 14 10 30 0 17 5 30 10 30 6 0 10 12 10 26 0 15 10 35 23 47 15
13 18 21 10 24 -8 3 -13 22 -13 44 0 21 -4 39 -10 39 -5 0 -10 23 -10 50 0 28
-4 50 -10 50 -5 0 -10 23 -10 50 0 28 -4 50 -10 50 -5 0 -10 5 -10 10 0 6 18
10 40 10 22 0 40 5 40 10 0 6 23 10 50 10 28 0 50 5 50 10 0 6 23 10 50 10
l50 0 0 -276z"/>
<path d="M1620 7890 c0 -5 5 -10 10 -10 6 0 10 5 10 10 0 6 -4 10 -10 10 -5 0
-10 -4 -10 -10z"/>
<path d="M2880 11920 c0 -13 7 -20 18 -20 10 0 24 -9 32 -20 17 -24 36 -26 56
-6 24 25 17 46 -16 46 -16 0 -30 5 -30 10 0 6 -13 10 -30 10 -23 0 -30 -4 -30
-20z"/>
<path d="M2920 11840 c0 -11 5 -20 10 -20 6 0 10 -4 10 -10 0 -5 -13 -10 -30
-10 l-30 0 0 -60 c0 -53 -2 -60 -20 -60 -11 0 -20 -4 -20 -10 0 -5 5 -10 10
-10 6 0 10 -9 10 -20 0 -13 7 -20 20 -20 22 0 27 16 8 23 -9 3 -6 11 10 24 24
22 29 49 10 56 -10 4 -9 8 2 17 11 9 12 13 3 17 -24 9 -13 23 17 23 17 0 30 5
30 10 0 6 9 10 20 10 13 0 20 7 20 20 0 16 -7 20 -30 20 -16 0 -30 5 -30 10 0
6 -4 10 -10 10 -5 0 -10 -9 -10 -20z"/>
<path d="M500 1150 c0 -5 7 -10 16 -10 9 0 29 -14 45 -31 16 -18 33 -28 37
-24 4 4 1 10 -5 12 -7 3 -13 13 -13 24 0 12 -7 19 -20 19 -11 0 -20 5 -20 10
0 6 -9 10 -20 10 -11 0 -20 -4 -20 -10z"/>
<path d="M660 1150 c0 -5 9 -10 20 -10 11 0 20 5 20 10 0 6 -9 10 -20 10 -11
0 -20 -4 -20 -10z"/>
<path d="M620 1055 c0 -11 51 -57 57 -52 3 3 -6 17 -20 31 -25 25 -37 32 -37
21z"/>
<path d="M520 970 c0 -5 9 -10 20 -10 11 0 20 5 20 10 0 6 -9 10 -20 10 -11 0
-20 -4 -20 -10z"/>
<path d="M600 780 c0 -11 -4 -20 -10 -20 -5 0 -10 -13 -10 -30 0 -16 -4 -30
-10 -30 -5 0 -10 -13 -10 -30 0 -16 -4 -30 -10 -30 -5 0 -10 -13 -10 -30 0
-16 -4 -30 -10 -30 -5 0 -10 -13 -10 -30 0 -16 -4 -30 -10 -30 -5 0 -10 -13
-10 -30 0 -16 -4 -30 -10 -30 -5 0 -10 -13 -10 -30 0 -16 -4 -30 -10 -30 -5 0
-10 -13 -10 -30 0 -16 -4 -30 -10 -30 -5 0 -10 -18 -10 -40 0 -22 -4 -40 -10
-40 -5 0 -10 -13 -10 -30 0 -16 -4 -30 -10 -30 -5 0 -10 -13 -10 -30 0 -16 -4
-30 -10 -30 -5 0 -10 -9 -10 -20 0 -11 -4 -20 -10 -20 -5 0 -10 -9 -10 -20 0
-26 12 -26 30 0 8 11 21 20 30 20 9 0 22 9 30 20 8 11 21 20 30 20 9 0 22 9
30 20 8 11 22 20 32 20 10 0 18 5 18 10 0 6 9 10 19 10 11 0 22 6 25 13 5 9 7
9 12 0 3 -7 13 -13 23 -13 9 0 23 -9 31 -20 16 -22 46 -27 53 -7 2 7 8 8 13 3
5 -5 4 -11 -3 -13 -18 -7 -16 -23 3 -23 9 0 29 -13 44 -30 27 -29 80 -42 80
-20 0 6 -4 10 -10 10 -5 0 -10 14 -10 30 0 17 -4 30 -10 30 -5 0 -10 14 -10
30 0 17 -4 30 -10 30 -5 0 -10 14 -10 30 0 17 -4 30 -10 30 -5 0 -10 14 -10
30 0 17 -4 30 -10 30 -5 0 -10 14 -10 30 0 17 -4 30 -10 30 -5 0 -10 14 -10
30 0 17 -4 30 -10 30 -5 0 -10 14 -10 30 0 17 -4 30 -10 30 -5 0 -10 14 -10
30 0 17 -4 30 -10 30 -5 0 -10 9 -10 20 0 11 -4 20 -10 20 -5 0 -10 14 -10 30
0 17 -4 30 -10 30 -5 0 -10 14 -10 30 0 17 -4 30 -10 30 -5 0 -10 14 -10 30 0
17 -4 30 -10 30 -5 0 -10 -9 -10 -20z"/>
<path d="M1160 470 c0 -67 4 -110 10 -110 6 0 10 43 10 110 0 67 -4 110 -10
110 -6 0 -10 -43 -10 -110z"/>
<path d="M1200 570 c0 -6 33 -10 80 -10 47 0 80 4 80 10 0 6 -33 10 -80 10
-47 0 -80 -4 -80 -10z"/>
<path d="M1380 500 c0 -47 4 -80 10 -80 6 0 10 30 10 70 l0 70 110 0 110 0 0
-70 c0 -40 4 -70 10 -70 6 0 10 33 10 80 l0 80 -130 0 -130 0 0 -80z"/>
<path d="M1660 570 c0 -6 37 -10 90 -10 l90 0 0 -70 c0 -40 4 -70 10 -70 6 0
10 30 10 70 l0 70 100 0 100 0 0 -100 c0 -60 4 -100 10 -100 6 0 10 40 10 100
l0 100 90 0 c53 0 90 4 90 10 0 6 -107 10 -300 10 -193 0 -300 -4 -300 -10z"/>
<path d="M2280 500 c0 -47 4 -80 10 -80 6 0 10 30 10 70 l0 70 110 0 110 0 0
-70 c0 -40 4 -70 10 -70 6 0 10 33 10 80 l0 80 -130 0 -130 0 0 -80z"/>
<path d="M2560 570 c0 -6 37 -10 90 -10 l90 0 0 -70 c0 -40 4 -70 10 -70 6 0
10 33 10 80 l0 80 -100 0 c-60 0 -100 -4 -100 -10z"/>
<path d="M2780 570 c0 -6 37 -10 90 -10 l90 0 0 -100 c0 -60 4 -100 10 -100
17 0 13 189 -4 206 -17 17 -186 21 -186 4z"/>
<path d="M1140 210 c0 -5 13 -10 29 -10 16 0 31 -6 34 -12 2 -7 8 -10 12 -6 4
4 0 14 -8 23 -17 17 -67 21 -67 5z"/>
<path d="M1620 210 c0 -5 9 -10 19 -10 11 0 21 -6 24 -12 2 -7 8 -10 12 -6 10
9 -19 38 -39 38 -9 0 -16 -4 -16 -10z"/>
<path d="M1740 210 c0 -5 14 -10 30 -10 17 0 30 5 30 10 0 6 -13 10 -30 10
-16 0 -30 -4 -30 -10z"/>
<path d="M1940 210 c0 -5 9 -10 19 -10 11 0 21 -6 24 -12 2 -7 8 -10 12 -6 10
9 -19 38 -39 38 -9 0 -16 -4 -16 -10z"/>
<path d="M2140 210 c0 -5 14 -10 30 -10 17 0 30 5 30 10 0 6 -13 10 -30 10
-16 0 -30 -4 -30 -10z"/>
<path d="M2940 210 c0 -5 14 -10 30 -10 17 0 30 5 30 10 0 6 -13 10 -30 10
-16 0 -30 -4 -30 -10z"/>
<path d="M3160 210 c0 -5 5 -10 10 -10 6 0 10 5 10 10 0 6 -4 10 -10 10 -5 0
-10 -4 -10 -10z"/>
<path d="M3280 200 c0 -11 5 -20 10 -20 6 0 10 -13 10 -30 0 -16 5 -30 10 -30
6 0 10 23 10 50 0 43 -3 50 -20 50 -13 0 -20 -7 -20 -20z"/>
<path d="M3180 170 c0 -5 5 -10 10 -10 6 0 10 5 10 10 0 6 -4 10 -10 10 -5 0
-10 -4 -10 -10z"/>
<path d="M3500 170 c0 -5 9 -10 20 -10 11 0 20 5 20 10 0 6 -9 10 -20 10 -11
0 -20 -4 -20 -10z"/>
<path d="M3640 170 c0 -5 9 -10 20 -10 11 0 20 5 20 10 0 6 -9 10 -20 10 -11
0 -20 -4 -20 -10z"/>
<path d="M1740 150 c0 -5 14 -10 30 -10 23 0 30 -4 30 -20 0 -11 5 -20 10 -20
15 0 12 29 -4 46 -17 16 -66 19 -66 4z"/>
<path d="M2140 150 c0 -5 14 -10 30 -10 23 0 30 -4 30 -20 0 -11 5 -20 10 -20
15 0 12 29 -4 46 -17 16 -66 19 -66 4z"/>
<path d="M2940 150 c0 -5 14 -10 30 -10 23 0 30 -4 30 -20 0 -11 5 -20 10 -20
15 0 12 29 -4 46 -17 16 -66 19 -66 4z"/>
<path d="M3480 130 c0 -5 18 -10 40 -10 22 0 40 5 40 10 0 6 -18 10 -40 10
-22 0 -40 -4 -40 -10z"/>
<path d="M3640 134 c0 -3 6 -12 14 -20 17 -16 46 -19 46 -4 0 6 -9 10 -20 10
-11 0 -20 5 -20 10 0 6 -4 10 -10 10 -5 0 -10 -3 -10 -6z"/>
<path d="M3200 110 c0 -5 5 -10 10 -10 6 0 10 -9 10 -20 0 -11 5 -20 10 -20
15 0 12 29 -4 46 -17 16 -26 18 -26 4z"/>
<path d="M3300 80 c0 -11 5 -20 10 -20 6 0 10 9 10 20 0 11 -4 20 -10 20 -5 0
-10 -9 -10 -20z"/>
<path d="M1140 70 c0 -5 5 -10 10 -10 6 0 10 5 10 10 0 6 -4 10 -10 10 -5 0
-10 -4 -10 -10z"/>
<path d="M1180 70 c0 -5 5 -10 10 -10 6 0 10 5 10 10 0 6 -4 10 -10 10 -5 0
-10 -4 -10 -10z"/>
<path d="M1420 70 c0 -5 5 -10 10 -10 6 0 10 5 10 10 0 6 -4 10 -10 10 -5 0
-10 -4 -10 -10z"/>
<path d="M1460 70 c0 -5 9 -10 20 -10 11 0 20 5 20 10 0 6 -9 10 -20 10 -11 0
-20 -4 -20 -10z"/>
<path d="M1520 70 c0 -5 5 -10 10 -10 6 0 10 5 10 10 0 6 -4 10 -10 10 -5 0
-10 -4 -10 -10z"/>
<path d="M1600 70 c0 -5 23 -10 50 -10 28 0 50 5 50 10 0 6 -22 10 -50 10 -27
0 -50 -4 -50 -10z"/>
<path d="M1720 70 c0 -5 18 -10 40 -10 22 0 40 5 40 10 0 6 -18 10 -40 10 -22
0 -40 -4 -40 -10z"/>
<path d="M1920 70 c0 -5 23 -10 50 -10 28 0 50 5 50 10 0 6 -22 10 -50 10 -27
0 -50 -4 -50 -10z"/>
<path d="M2140 70 c0 -5 14 -10 30 -10 17 0 30 5 30 10 0 6 -13 10 -30 10 -16
0 -30 -4 -30 -10z"/>
<path d="M2940 70 c0 -5 14 -10 30 -10 17 0 30 5 30 10 0 6 -13 10 -30 10 -16
0 -30 -4 -30 -10z"/>
<path d="M3500 70 c0 -5 14 -10 30 -10 17 0 30 5 30 10 0 6 -13 10 -30 10 -16
0 -30 -4 -30 -10z"/>
<path d="M3620 70 c0 -5 14 -10 30 -10 17 0 30 5 30 10 0 6 -13 10 -30 10 -16
0 -30 -4 -30 -10z"/>
</g>
</svg>
