<?xml version="1.0" encoding="UTF-8"?>
<svg version="1.1" xmlns="http://www.w3.org/2000/svg" width="314" height="372">
<path d="M0 0 C103.62 0 207.24 0 314 0 C314 122.76 314 245.52 314 372 C210.38 372 106.76 372 0 372 C0 249.24 0 126.48 0 0 Z " fill="#FEFEFE" transform="translate(0,0)"/>
<path d="M0 0 C14.3446904 -0.25166124 14.3446904 -0.25166124 20.421875 5.52734375 C23.21104516 8.13010897 24.63305949 8.98689498 28.5 9.125 C34.78443603 9.74882269 39.1767664 14.27135089 44 18 C48.58453095 21.12692697 53.31181109 23.75353707 58.3359375 26.10546875 C60 27 60 27 62 29 C61.54613955 33.39677313 58.70526913 36.84060306 56.375 40.46484375 C54.96346435 43.0673626 54.23943931 45.05190351 54 48 C56.46278801 50.46278801 58.70676982 50.99771255 62 52 C62.3125 54.75 62.3125 54.75 62 58 C61.21625 58.61875 60.4325 59.2375 59.625 59.875 C56.39122325 62.49281928 56.23821904 64.10427184 55.4609375 68.02734375 C54.82608052 70.74431641 53.66499741 72.78000345 52 75 C51.34 75 50.68 75 50 75 C49.34 74.01 48.68 73.02 48 72 C45.41619823 71.74969023 45.41619823 71.74969023 43 72 C42.7497843 74.91634129 42.7497843 74.91634129 43 78 C44.485 78.99 44.485 78.99 46 80 C46.5546875 82.09375 46.5546875 82.09375 46.875 84.5 C47.29844798 86.90950495 47.29844798 86.90950495 48 89 C50.21776622 90.30514736 50.21776622 90.30514736 53 91 C54.10691718 92.03790738 55.18817637 93.10350372 56.25 94.1875 C58.30480484 96.02437099 59.36064759 96.94964807 62.1328125 97.16796875 C63.64366844 96.97055726 65.1488588 96.72449046 66.64453125 96.43359375 C70.43306861 95.7362013 74.15696174 95.93899939 78 96 C79.00782071 92.37349763 79.28350995 88.86522634 79.5234375 85.12109375 C80.10686357 82.52436953 80.9089619 81.61153291 83 80 C84.5159375 79.5978125 84.5159375 79.5978125 86.0625 79.1875 C87.031875 78.795625 88.00125 78.40375 89 78 C89.4021875 76.515 89.4021875 76.515 89.8125 75 C91 72 91 72 92.97265625 71.09375 C96.35564996 70.25762798 98.84982422 69.65134044 102.2421875 70.6796875 C104 72 104 72 104.609375 74.1640625 C104.65578125 74.97617188 104.7021875 75.78828125 104.75 76.625 C104.80671875 77.44226563 104.8634375 78.25953125 104.921875 79.1015625 C104.94765625 79.72804688 104.9734375 80.35453125 105 81 C115.01741293 82.71620482 124.8022578 81.5988711 134 77 C147.26058632 76.5504886 147.26058632 76.5504886 150.875 79.5625 C151.98802221 81.97404811 152.21515207 83.5183253 152.4375 86.125 C152.623125 87.40375 152.80875 88.6825 153 90 C154.76529595 91.21690533 154.76529595 91.21690533 157 92 C158.25537148 93.48069457 159.50817865 94.96454075 160.7109375 96.48828125 C162.54967872 98.64462323 164.78637534 100.2404522 167 102 C168.34736973 103.65533995 169.68334336 105.32012773 171 107 C171.66 107.33 172.32 107.66 173 108 C173 108.66 173 109.32 173 110 C173.556875 110.226875 174.11375 110.45375 174.6875 110.6875 C177.9543876 112.54167945 179.73028087 113.93281199 182 117 C182.5041473 120.10890835 182.68714948 123.11020436 182.76171875 126.2578125 C182.79755049 129.21696334 182.79755049 129.21696334 185 132 C186.9466071 133.21418833 186.9466071 133.21418833 189.125 134.1875 C189.84945313 134.53167969 190.57390625 134.87585938 191.3203125 135.23046875 C191.87460937 135.48441406 192.42890625 135.73835937 193 136 C193 136.66 193 137.32 193 138 C190.4538931 139.94702293 188.39359162 140.91949262 185.25 141.5625 C179.73100872 140.60728997 175.64775025 137.02159309 171.265625 133.67578125 C168.26103019 131.43740196 168.26103019 131.43740196 164.6328125 131.25390625 C161.90278789 132.02754824 159.63280243 133.05299552 157.125 134.375 C154.19907894 135.89873634 151.34121749 137.29031484 148.25 138.4375 C143.36431052 140.78638917 140.1197247 143.7605506 137.6875 148.625 C137.06435208 151.68408979 136.85086115 154.45455403 136.6875 157.5625 C136.20422422 164.61832635 133.87927617 170.59236227 131 177 C130.31357422 178.58941406 130.31357422 178.58941406 129.61328125 180.2109375 C127.8470983 183.26433852 126.68126387 184.21428491 123.5625 185.75 C122.80066406 186.13671875 122.03882813 186.5234375 121.25390625 186.921875 C120.13822266 187.45554688 120.13822266 187.45554688 119 188 C117.98679688 188.52980469 117.98679688 188.52980469 116.953125 189.0703125 C111.72913545 191.55693152 105.70885982 192.78742894 100 192 C97.32695433 190.64897227 94.84044385 189.14321851 92.33203125 187.5078125 C90.08797743 185.97031519 90.08797743 185.97031519 87.80859375 185.03125 C84.65612486 183.23372994 84.2231008 180.30237215 83 177 C81.02 177.33 79.04 177.66 77 178 C77 178.66 77 179.32 77 180 C76.48050781 180.23074219 75.96101562 180.46148437 75.42578125 180.69921875 C68.72785683 183.83151982 64.74191989 187.01156879 62 194 C60.8671016 196.23576816 59.72009554 198.46441867 58.5625 200.6875 C56.03685367 205.62546238 54.04599756 210.45861344 52.61328125 215.8203125 C51.4779018 219.85561017 49.66681633 223.59227664 47.875 227.375 C46.80609209 230.58172372 46.52267645 233.6532145 46.24609375 237.01171875 C46 239 46 239 45 241 C44.68021341 243.84233959 44.40840288 246.67420887 44.16796875 249.5234375 C44.0077782 251.28521244 43.84694932 253.04692943 43.68554688 254.80859375 C43.43572903 257.57681916 43.19002393 260.34515432 42.95581055 263.11474609 C42.06269617 273.58125444 41.01901027 283.18858053 37 293 C36.39364722 294.6207633 35.7881387 296.24184277 35.18359375 297.86328125 C34.60459128 299.34753924 34.02261703 300.83064181 33.4375 302.3125 C33.00147461 303.43108398 33.00147461 303.43108398 32.55664062 304.57226562 C30.78807823 309.08664971 28.93254513 313.55338401 27 318 C26.4225 317.835 25.845 317.67 25.25 317.5 C22.73335631 316.85537969 22.73335631 316.85537969 19 317 C17 317 15 317 13 317 C12.90332031 318.14275391 12.90332031 318.14275391 12.8046875 319.30859375 C12 322 12 322 9.8203125 323.66015625 C8.93085937 324.12292969 8.04140625 324.58570313 7.125 325.0625 C3.34768657 327.01342866 3.34768657 327.01342866 0.4921875 330.05859375 C-1.3815218 332.49637785 -3.15644819 332.96186417 -6 334 C-6.9839477 300.17339176 -6.9839477 300.17339176 -1.99609375 285.6796875 C-0.8937443 281.60747894 -1.18394605 279.09935873 -2 275 C-2.51458626 268.02339786 -1.97618438 261.47430968 -0.87329102 254.59838867 C1.3642118 240.61556297 0.92295581 227.09810958 0 213 C-0.60360352 212.70270996 -1.20720703 212.40541992 -1.82910156 212.09912109 C-4.54361899 210.7247669 -7.13332692 209.17737859 -9.75 207.625 C-11.83260812 206.41541716 -13.91589878 205.20700843 -16 204 C-16.76441406 203.54367188 -17.52882812 203.08734375 -18.31640625 202.6171875 C-22.95354762 200.02184028 -25.86778096 199.6917873 -31 201 C-31.99 201.33 -32.98 201.66 -34 202 C-36.08700875 198.86948687 -37.507298 195.75602378 -38.8125 192.25 C-40.52352964 187.83905666 -42.71961231 184.27222778 -45.42578125 180.4140625 C-47.75954256 176.83524242 -49.56607907 173.03600889 -51.41015625 169.1875 C-55.06939024 161.85105052 -59.25318544 154.84401633 -63.5625 147.875 C-68.81325983 139.36689122 -68.81325983 139.36689122 -71.203125 135.1328125 C-72.95324117 131.94958035 -72.95324117 131.94958035 -75.1875 129 C-77.24540676 125.5938095 -77.68522139 122.93473263 -78 119 C-72.15834771 115.27128577 -66.47319391 112.18547303 -59.93359375 109.859375 C-57.8171573 109.16407065 -57.8171573 109.16407065 -57 107 C-53.07677781 106.06782944 -49.20472073 105.66379887 -45.3125 106.75 C-44.549375 106.8325 -43.78625 106.915 -43 107 C-41.55457328 105.78452753 -40.11484958 104.55901934 -38.74609375 103.2578125 C-36.60023879 101.71202884 -34.91225109 101.45857229 -32.3125 101.0625 C-30.01642808 100.70992582 -30.01642808 100.70992582 -28 100 C-25.92481711 97.26634817 -25.92481711 97.26634817 -25 94 C-23.11111111 89.11111111 -23.11111111 89.11111111 -21 87 C-19.07807163 87 -17.15591629 87.00439767 -15.234375 87.04296875 C-11.46590323 86.97049814 -8.56402667 86.29042345 -5 85 C-2.37216325 81.27723127 -2.24018943 76.43101566 -3 72 C-4.46200581 69.49641155 -6.34874842 67.61798478 -8.4375 65.625 C-14.98114596 59.04050731 -14.98114596 59.04050731 -15.0625 54.55078125 C-15.03857357 52.43528635 -15.0001453 50.32033907 -14.9609375 48.20507812 C-14.91040576 43.69512042 -15.33830275 39.47329214 -16 35 C-15.5625 31.5625 -15.5625 31.5625 -15 29 C-14.41992188 29.20496094 -13.83984375 29.40992187 -13.2421875 29.62109375 C-8.8378016 31.14009813 -4.64322223 32.4047151 0 33 C2.99766909 29.6155349 4.17066702 27.3836172 5 23 C5.99 22.34 6.98 21.68 8 21 C8.66887173 18.17123097 8.66887173 18.17123097 8 15 C6.80443152 13.54593023 5.60085239 12.09519076 4.3125 10.72265625 C1.91344617 7.5738981 1.03194597 3.77541207 0 0 Z " fill="#7695C8" transform="translate(95,14)"/>
</svg>
